<?xml version="1.0" encoding="utf-8"?>
<!-- Generator: Adobe Illustrator 18.0.0, SVG Export Plug-In . SVG Version: 6.00 Build 0)  -->
<!DOCTYPE svg PUBLIC "-//W3C//DTD SVG 1.1//EN" "http://www.w3.org/Graphics/SVG/1.1/DTD/svg11.dtd">
<svg version="1.1" id="Capa_1" xmlns="http://www.w3.org/2000/svg" xmlns:xlink="http://www.w3.org/1999/xlink" x="0px" y="0px"
	 viewBox="0 0 34.7 45.5" enable-background="new 0 0 34.7 45.5" xml:space="preserve">
<g>
	<g>
		<path fill-rule="evenodd" clip-rule="evenodd" d="M4.5,0c1,0.4,1.2,1.1,1.2,2c0,12.1,0,24.1,0,36.2
			c0,0.4-0.1,0.8-0.2,1.1c-0.6,1.5-1.3,3.1-2,4.6c-0.1,0.3-0.4,0.4-0.7,0.6c-0.2-0.2-0.5-0.4-0.6-0.7c-0.7-1.5-1.4-3.1-2-4.7
			C0,38.9,0,38.5,0,38.1c0-12,0-24,0-36C0,1.2,0.3,0.5,1.1,0C2.2,0,3.4,0,4.5,0z M1.2,5.9c0,10.8,0,21.5,0,32.3c0.4,0,0.7,0,1,0
			c0-10.8,0-21.5,0-32.3C1.9,5.9,1.5,5.9,1.2,5.9z M3.5,5.9c0,10.8,0,21.6,0,32.3c0.4,0,0.7,0,1,0c0-10.8,0-21.5,0-32.3
			C4.1,5.9,3.8,5.9,3.5,5.9z M0.9,2.9c1.4,0,2.4,0,3.7,0C4.5,2.3,4.5,1.3,4.3,1.3C3.4,1.1,2.4,1,1.5,1.2C1.3,1.2,1.2,2.2,0.9,2.9z
			 M4.2,39.4c-1,0-1.8,0-2.8,0C1.8,40,2,40.7,2.3,41.2c0.1,0.2,0.4,0.3,0.5,0.3c0.2,0,0.5-0.2,0.6-0.4C3.7,40.6,4,40,4.2,39.4z
			 M1.3,4C1.2,4.1,1.1,4.2,1.1,4.2c0.2,0.2,0.4,0.5,0.6,0.5c0.8,0.1,1.5,0,2.3,0c0.2,0,0.4-0.2,0.6-0.4C4.4,4.2,4.2,4,4,4
			C3.1,4,2.2,4,1.3,4z"/>
		<path fill-rule="evenodd" clip-rule="evenodd" d="M12,22.4c0-6.9,0-13.8,0-20.7c0-1.2,0.1-1.2,1.3-1.2
			c1.9,0,3.8,0,5.7,0c0.8,0,1.2,0.3,1.2,1.1c0,14,0,28,0,41.9c0,0.8-0.3,1.1-1.1,1.1c-1.9,0-3.8,0-5.7,0c-1.3,0-1.3-0.1-1.3-1.2
			C12,36.4,12,29.4,12,22.4z M13.2,35.7c0.5,0,0.8,0,1.2,0c0.6,0.1,1.7-0.4,1.7,0.6c0,0.8-1,0.4-1.6,0.5c-0.4,0.1-0.8,0-1.3,0
			c0,0.6,0,1.1,0,1.4c0.6,0.3,1.4,0.5,1.5,0.8c0.1,1-1,0.3-1.4,0.7c0,0.5,0,1,0,1.5c0.1-0.1,0.1-0.1,0.2-0.2
			c0.4,0.2,0.9,0.5,1.3,0.7c-0.5,0.3-1,0.5-1.5,0.8c0,0.1,0,0.5,0,0.8c2,0,3.9,0,5.8,0c0-14,0-27.9,0-41.8c-2,0-3.9,0-5.8,0
			c0,0.4,0,0.7,0,1.2c0.7,0,1.4-0.1,2.1,0c0.3,0,0.5,0.3,0.8,0.5c-0.3,0.2-0.5,0.5-0.8,0.5c-0.7,0.1-1.4,0-2.1,0c0,0.6,0,1.1,0,1.6
			c0.1-0.1,0.1-0.1,0.2-0.2c0.4,0.3,0.9,0.5,1.3,0.8c-0.5,0.3-1,0.5-1.5,0.8c0,0.3,0,0.8,0,1c0.6,0.3,1.1,0.6,1.6,0.9
			c-0.5,0.3-1,0.5-1.5,0.8c0,0.4,0,0.9,0,1.1c0.6,0.3,1.4,0.5,1.4,0.7c0.1,1-1,0.3-1.4,0.7c0,0.5,0,1,0,1.6c0.7,0,1.4-0.1,2.1,0
			c0.3,0,0.5,0.3,0.8,0.5c-0.3,0.2-0.5,0.5-0.8,0.5c-0.7,0.1-1.4,0-2.1,0c0,0.6,0,1.1,0,1.4c0.6,0.3,1.1,0.6,1.5,0.8
			c-0.5,0.3-0.9,0.5-1.5,0.8c0,0.3,0,0.8,0,1.1c0.6,0.3,1.1,0.6,1.5,0.8c-0.5,0.3-0.9,0.5-1.5,0.9c0,0.3,0,0.8,0,1.3
			c0.1-0.1,0.1-0.1,0.2-0.2c0.5,0.3,0.9,0.5,1.4,0.8c-0.5,0.3-1,0.5-1.5,0.8c0,0.3,0,0.8,0,1.4c0.7,0,1.4-0.1,2.1,0
			c0.3,0,0.5,0.3,0.8,0.5c-0.3,0.2-0.5,0.5-0.8,0.5c-0.7,0.1-1.4,0-2.1,0c0,0.6,0,1.2,0,1.5c0.6,0.3,1.4,0.5,1.4,0.7
			c0.1,1-1,0.4-1.4,0.7c0,0.5,0,1,0,1.3c0.6,0.3,1.1,0.6,1.5,0.8c-0.5,0.3-0.9,0.5-1.5,0.8c0,0.3,0,0.8,0,1.1
			c0.6,0.3,1.1,0.6,1.5,0.8c-0.5,0.3-0.9,0.5-1.6,0.9C13.2,34.6,13.2,35.1,13.2,35.7z"/>
	</g>
	<path fill-rule="evenodd" clip-rule="evenodd" d="M29.7,21.2c-0.3,0.3-0.5,0.6-0.7,0.8c-0.3-0.3-0.6-0.6-0.8-0.9
		c0,0.2,0,0.5,0,0.8c0,7.4,0,14.7,0,22.1c0,0.5,0.3,1.4-0.5,1.4c-0.9,0-0.5-0.8-0.6-1.3c-0.2-0.7-0.3-1.4-0.6-2.1
		c-0.6-1.1-1.6-2.1-1.3-3.5c-0.2,0.1-0.3,0.1-0.3,0.1c-0.2,0.3-0.5,0.7-0.7,1c-0.2-0.3-0.4-0.7-0.5-1c-0.1-0.5-0.1-1,0-1.5
		c0.1-0.3,0.4-0.5,0.5-0.8c0.2,0.3,0.4,0.5,0.6,0.8c0,0.1,0.1,0.2,0.2,0.2c0-5.4,0-10.9,0-16.5c-0.3,0-0.7,0.1-1,0
		c-0.3-0.1-0.5-0.3-0.7-0.5c0.2-0.2,0.4-0.5,0.7-0.6c0.3-0.1,0.7,0,1.1,0c0-0.3,0.1-0.6,0.1-0.8c0-1.5,0-3.1,0-4.6
		c0-0.2-0.1-0.6,0-0.7c0.8-0.8,0.4-1.6,0.2-2.5C25,9.4,26,7.9,27.8,7.2c0.2-0.1,0.5-0.3,0.6-0.5c0-0.1-0.3-0.3-0.4-0.5
		c-0.2-0.3-0.4-0.6-0.5-0.9c-0.1-1.3,0-2.6,0-3.9c0-0.6,0.3-0.9,1-0.9c0.1,0,0.1,0,0.2,0c1.9,0,1.9,0,1.9,1.7c0,0.9,0,1.9,0,2.8
		c0,0.5,0.1,1.1-0.7,1.3c-0.1,0-0.1,0.6,0,0.8c0,0.1,0.4,0.1,0.6,0.2c2,0.8,2.8,2.8,1.9,4.6c-0.2,0.4-0.3,0.7,0.1,1.2
		c0.3,0.3,0.4,0.8,0.4,1.2c0,1.8,0,3.5,0,5.4c0.4,0,0.8-0.1,1.2,0c0.3,0.1,0.5,0.4,0.7,0.6c-0.2,0.2-0.4,0.4-0.7,0.5
		c-0.3,0.1-0.7,0-1.1,0c0,5.5,0,11,0,16.4c0.1,0,0.1,0,0.2,0c0-0.1,0-0.3,0.1-0.4c0.2-0.2,0.4-0.4,0.6-0.6c0.2,0.2,0.5,0.5,0.5,0.7
		c0.1,0.6,0.1,1.2,0,1.8c0,0.3-0.3,0.5-0.5,0.8c-0.2-0.3-0.4-0.5-0.6-0.8c0-0.1-0.1-0.2-0.2-0.3c0,1.7-1.3,2.8-1.9,4.3
		c-0.2,0.5,0,1.1-0.1,1.6c-0.1,0.4-0.3,1-0.5,1c-0.7,0-0.6-0.6-0.6-1.1c0-7.3,0-14.6,0-21.9C29.7,22,29.7,21.6,29.7,21.2z M31,40.4
		c0.1,0,0.2,0.1,0.3,0.1c0.1-0.4,0.4-0.9,0.4-1.3c0-8.3,0-16.5,0-24.8c0-0.3-0.3-0.7-0.4-1c-0.1,0-0.2,0.1-0.2,0.1
		C31,22.4,31,31.4,31,40.4z M26.7,40.5c0.1,0,0.2-0.1,0.3-0.1c0-9,0-18,0-27c-0.1,0-0.2,0-0.3-0.1c-0.1,0.4-0.4,0.8-0.4,1.2
		c0,8.2,0,16.3,0,24.5C26.3,39.5,26.6,40,26.7,40.5z M26.7,11.6c1.2-0.7,1.2-0.7,1.6,1.3c0.4,0,0.9,0,1.3,0c0.1-0.6,0.1-1.1,0.3-1.5
		c0.1-0.2,0.8,0,1.3,0c0.4-1,0.2-2.1-0.8-2.8c-1-0.7-2.3-0.7-3.2,0.1C26.4,9.4,26.2,10.5,26.7,11.6z M28.2,14c0,1.9,0,3.7,0,5.4
		c0.2-0.2,0.4-0.5,0.7-0.8c0.3,0.3,0.5,0.5,0.8,0.7c0-1.7,0-3.5,0-5.4C29.2,14,28.7,14,28.2,14z M29.1,5.2c0.1,0,0.1-0.1,0.2-0.1
		c0-1,0-2,0-3.1c0-0.1-0.2-0.3-0.4-0.4c-0.1,0.1-0.3,0.3-0.4,0.4c0,0.9,0,1.8,0,2.7C28.6,4.9,28.9,5,29.1,5.2z"/>
</g>
</svg>
