<?xml version="1.0" encoding="utf-8"?>
<!-- Generator: Adobe Illustrator 18.0.0, SVG Export Plug-In . SVG Version: 6.00 Build 0)  -->
<!DOCTYPE svg PUBLIC "-//W3C//DTD SVG 1.1//EN" "http://www.w3.org/Graphics/SVG/1.1/DTD/svg11.dtd">
<svg version="1.1" id="Capa_1" xmlns="http://www.w3.org/2000/svg" xmlns:xlink="http://www.w3.org/1999/xlink" x="0px" y="0px"
	 viewBox="0 0 23.8 43.1" enable-background="new 0 0 23.8 43.1" xml:space="preserve">
<g>
	<path fill-rule="evenodd" clip-rule="evenodd" d="M10.7,43.1C10,43,9.3,43,8.6,42.8c-2.4-0.5-4.5-1.4-6.3-3.1
		C0.8,38.3,0,36.6,0,34.5C0,28.8,0,23,0,17.3c0-2.5,1.2-4.3,3-5.8c0.3-0.3,0.7-0.2,1,0.1c0.2,0.3,0.2,0.7-0.1,1
		c-0.7,0.6-1.4,1.3-1.9,2.1c-1,1.9-0.8,4.1,0.7,5.8c1.3,1.5,3.1,2.4,5,3c3.3,0.9,6.6,0.8,9.9-0.6c1.4-0.6,2.7-1.4,3.6-2.7
		c1.6-2.2,1.5-4.7-0.4-6.7c-0.3-0.3-0.6-0.6-0.9-0.9c-0.3-0.3-0.4-0.7-0.1-1c0.3-0.3,0.7-0.3,1,0c1.9,1.6,3,3.5,3,6
		c0,5.6,0,11.2,0,16.8c0,2.5-1.1,4.5-3,6c-2.1,1.7-4.6,2.5-7.3,2.7c-0.2,0-0.3,0.1-0.4,0.1C12.3,43.1,11.5,43.1,10.7,43.1z M1.4,21
		c0,0.1,0,0.2,0,0.3c0,4.5,0,8.9,0,13.4c0,0.6,0.1,1.2,0.3,1.7c0.6,1.8,2,3,3.7,3.9c2.5,1.3,5.1,1.7,7.8,1.4
		c2.4-0.2,4.7-0.9,6.6-2.4c1.6-1.2,2.6-2.8,2.6-5c0-4.3,0-8.6,0-12.8c0-0.1,0-0.3,0-0.5c-2.8,3.2-6.5,4.3-10.5,4.3
		C7.9,25.3,4.2,24.2,1.4,21z"/>
	<path fill-rule="evenodd" clip-rule="evenodd" d="M12.6,0c0.6,0.2,1.3,0.3,1.9,0.5c2.7,1.1,4.4,3.1,4.8,6.1
		c0.4,3-0.8,5.5-3.3,7.2c-4.4,2.9-10.2,0.5-11.4-4.7c-0.9-4.2,2-8.4,6.2-9C10.9,0.1,11,0,11.1,0C11.6,0,12.1,0,12.6,0z M18,7.5
		c0-3.4-2.7-6.1-6.1-6.1c-3.4,0-6.1,2.7-6.1,6.1c0,3.4,2.7,6.1,6.1,6.1C15.2,13.6,18,10.9,18,7.5z"/>
	<path fill-rule="evenodd" clip-rule="evenodd" d="M11.9,16.3c1.6,0,3.2,0,4.8,0c0.1,0,0.3,0,0.4,0
		c0.3,0.1,0.6,0.3,0.6,0.6c0,0.4-0.2,0.6-0.5,0.7c-0.1,0-0.3,0-0.4,0c-3.2,0-6.4,0-9.6,0c-0.1,0-0.3,0-0.4,0
		c-0.3-0.1-0.5-0.3-0.5-0.7c0-0.4,0.2-0.6,0.6-0.6c0.1,0,0.3,0,0.4,0C8.7,16.3,10.3,16.3,11.9,16.3z"/>
	<path fill-rule="evenodd" clip-rule="evenodd" d="M11.9,28.1c-1-0.1-1.9-0.2-2.9-0.3c-0.5,0-0.8-0.4-0.7-0.8
		c0-0.4,0.4-0.6,0.9-0.6c1.1,0.1,2.2,0.2,3.3,0.2c2.5,0,4.9-0.6,7.2-1.8c0.1-0.1,0.2-0.1,0.3-0.2c0.4-0.2,0.8-0.1,1,0.3
		c0.2,0.3,0,0.7-0.4,0.9c-0.6,0.3-1.2,0.6-1.9,0.9C16.5,27.7,14.2,28.1,11.9,28.1z"/>
	<path fill-rule="evenodd" clip-rule="evenodd" d="M3.5,24.7c0.1,0,0.2,0.1,0.3,0.1c0.8,0.4,1.7,0.7,2.5,1.1
		c0.4,0.2,0.6,0.5,0.5,0.9c-0.1,0.4-0.5,0.6-0.9,0.4c-1-0.4-1.9-0.8-2.9-1.3c-0.3-0.1-0.4-0.5-0.3-0.8C2.9,24.8,3.1,24.7,3.5,24.7z"
		/>
	<path fill-rule="evenodd" clip-rule="evenodd" d="M16.1,6.4c-0.1,0.3-0.2,0.8-0.5,1.2c-1,1.4-2,2.7-3.1,4.1
		c-0.4,0.5-0.9,0.5-1.3,0c-1-1.3-2-2.7-3-4C7.4,6.6,7.5,5.2,8.4,4.3c0.8-0.9,2.2-1,3.3-0.3c0.2,0.1,0.3,0.1,0.5,0
		c0.9-0.5,1.7-0.6,2.6-0.1C15.7,4.3,16.1,5.1,16.1,6.4z M11.9,10.3c0.9-1.2,1.8-2.3,2.6-3.5c0.4-0.6,0.3-1.3-0.3-1.7
		c-0.6-0.4-1.2-0.3-1.7,0.3c-0.4,0.6-0.9,0.6-1.3,0C10.8,4.8,10.1,4.7,9.6,5C9,5.4,8.8,6.1,9.2,6.7C10.1,7.9,11,9,11.9,10.3z"/>
</g>
</svg>
