<?xml version="1.0" encoding="utf-8"?>
<!-- Generator: Adobe Illustrator 18.0.0, SVG Export Plug-In . SVG Version: 6.00 Build 0)  -->
<!DOCTYPE svg PUBLIC "-//W3C//DTD SVG 1.1//EN" "http://www.w3.org/Graphics/SVG/1.1/DTD/svg11.dtd">
<svg version="1.1" id="Capa_1" xmlns="http://www.w3.org/2000/svg" xmlns:xlink="http://www.w3.org/1999/xlink" x="0px" y="0px"
	 viewBox="0 0 45.1 45.5" enable-background="new 0 0 45.1 45.5" xml:space="preserve">
<g>
	<path fill="none" stroke-miterlimit="10" d="M19.1,0.5c0.9,0.3,1.2,0.7,1.2,1.7c0,2.3,0,4.6,0,6.8
		c0,0.9-0.4,1.3-1.3,1.3c-0.8,0-1.6,0-2.4,0c-0.8,0-1.2-0.4-1.2-1.2c0-2.4,0-4.8,0-7.3c0-0.6,0.2-1.1,0.9-1.3
		C17.2,0.5,18.2,0.5,19.1,0.5z"/>
	<path fill="none" stroke-width="1.5" stroke-miterlimit="10" d="M12.8,27.3c3.6,2.5,7.2,2.4,10.7-0.2
		c0.4,0.4,0.8,0.9,1.2,1.3c0,0-0.1,0.1-0.1,0.2c-2.9,5.1-5.9,10.1-8.8,15.2c-0.1,0.2-0.2,0.4-0.5,0.4c-4.7,0-9.4,0-14.1,0
		c-0.1,0-0.1,0-0.3,0c0-0.7-0.1-1.4-0.1-2c-0.1-2.6,0-5.2,0.7-7.7c0.4-1.6,1.1-3.1,2.4-4.2c0.8-0.7,1.8-1.1,2.9-1.1
		c1.3,0,2.5,0,3.8,0c0.2,0,0.5-0.1,0.6-0.2C11.8,28.4,12.3,27.8,12.8,27.3z"/>
	<path fill="none" stroke-width="1.5" stroke-miterlimit="10" d="M25.7,19.9c-0.2,1.7-0.8,3.2-1.8,4.6
		c-1.9,2.6-5.2,3.7-8.1,2.6c-2.4-0.9-4-2.7-4.8-5.1c-0.2-0.6-0.3-1.2-0.4-1.8c-0.1-0.2-0.1-0.4-0.4-0.5c-1-0.3-1.5-1.1-1.7-2.1
		c-0.2-1,0.1-2,0.8-2.7c0.1-0.1,0.3-0.1,0.4-0.1c5.8,0,11.5,0,17.3,0c0.1,0,0.3,0,0.4,0.1c0.8,0.8,1.1,1.7,0.9,2.8
		c-0.2,1-0.8,1.8-1.8,2.1C26.1,19.8,25.9,19.8,25.7,19.9z"/>
	<path fill="none" stroke-miterlimit="10" d="M31.1,45c-4.1,0-8.2,0-12.2,0c-1.1,0-1.4-0.6-0.8-1.5
		c4.1-7.1,8.2-14.2,12.3-21.3c0.1-0.2,0.2-0.4,0.4-0.5c0.4-0.3,0.9-0.2,1.2,0.4c0.7,1.3,1.5,2.5,2.2,3.8c3.4,5.8,6.8,11.7,10.2,17.5
		c0.1,0.2,0.2,0.3,0.3,0.5c0.2,0.4,0,0.9-0.5,1.1C43.8,45,43.6,45,43.4,45C39.3,45,35.2,45,31.1,45z M42.4,43.4
		c-3.7-6.5-7.4-12.9-11.2-19.4c-3.8,6.5-7.5,12.9-11.2,19.4C27.5,43.4,34.9,43.4,42.4,43.4z"/>
	<path fill="none" stroke-width="1.5" stroke-miterlimit="10" d="M7.2,13.2c0-1,0-2.1,0-3.1c0.4,0,0.7,0,1.1,0
		c0.3,0,0.4-0.1,0.5-0.4c0.7-2.1,1.8-4,3.5-5.4c0.6-0.5,1.3-0.9,2-1.5c0,0.3,0,0.4,0,0.6c0,2,0,4.1,0,6.1c0,1,0.5,1.8,1.4,2.1
		c0.3,0.1,0.5,0.1,0.8,0.1c0.9,0,1.8,0,2.7,0c1.4,0,2.2-0.8,2.2-2.2c0-2.2,0-4.3,0-6.7c0.7,0.5,1.4,0.9,2,1.4
		c1.7,1.5,2.9,3.3,3.6,5.5c0.1,0.3,0.2,0.4,0.5,0.4c0.3,0,0.6,0,0.9,0c0,0,0.1,0,0.1,0c0,1,0,2,0,3.1C21.4,13.2,14.3,13.2,7.2,13.2z
		"/>
	<path d="M29.7,29.8c1,0,1.9,0,2.9,0c-0.2,2.5-0.4,4.9-0.5,7.4c-0.6,0-1.2,0-1.8,0c0,0-0.1-0.1-0.1-0.2
		C30,34.7,29.9,32.3,29.7,29.8C29.7,29.9,29.7,29.9,29.7,29.8z"/>
	<path d="M30,39c0.8,0,1.6,0,2.4,0c0,0.8,0,1.6,0,2.4c-0.8,0-1.6,0-2.4,0C30,40.6,30,39.8,30,39z"/>
</g>
</svg>
