<?xml version="1.0" encoding="utf-8"?>
<!-- Generator: Adobe Illustrator 18.0.0, SVG Export Plug-In . SVG Version: 6.00 Build 0)  -->
<!DOCTYPE svg PUBLIC "-//W3C//DTD SVG 1.1//EN" "http://www.w3.org/Graphics/SVG/1.1/DTD/svg11.dtd">
<svg version="1.1" id="Capa_1" xmlns="http://www.w3.org/2000/svg" xmlns:xlink="http://www.w3.org/1999/xlink" x="0px" y="0px"
	 viewBox="0 0 46 38.4" enable-background="new 0 0 46 38.4" xml:space="preserve">
<path fill="none" stroke-width="2" stroke-miterlimit="10" d="M45,7.9c-0.2,0.3-0.3,0.6-0.6,0.8
	c-9.4,9.4-18.8,18.8-28.2,28.2c-0.7,0.7-1.2,0.7-1.9,0c-4.3-4.3-8.6-8.6-12.9-12.8c-0.2-0.2-0.3-0.5-0.5-0.7c0-0.1,0-0.3,0-0.4
	c0.2-0.3,0.5-0.7,0.7-1c1.7-1.7,3.3-3.3,5-5c0.8-0.8,1.3-0.8,2,0c2.2,2.2,4.4,4.3,6.6,6.5c0,0.1,0,0.2,0.1,0.2
	c0.1-0.2,0.2-0.4,0.3-0.5C22.9,16,30,8.8,37.2,1.6c0.8-0.8,1.3-0.8,2.1,0c1.7,1.7,3.4,3.4,5,5c0.2,0.2,0.4,0.6,0.6,0.8
	C45,7.6,45,7.8,45,7.9z"/>
</svg>
