<?xml version="1.0" encoding="utf-8"?>
<!-- Generator: Adobe Illustrator 17.0.0, SVG Export Plug-In . SVG Version: 6.00 Build 0)  -->
<!DOCTYPE svg PUBLIC "-//W3C//DTD SVG 1.1//EN" "http://www.w3.org/Graphics/SVG/1.1/DTD/svg11.dtd">
<svg version="1.1" id="Capa_1" xmlns="http://www.w3.org/2000/svg" xmlns:xlink="http://www.w3.org/1999/xlink" x="0px" y="0px"
	 width="78.444px" height="70.889px" viewBox="0 0 78.444 70.889" enable-background="new 0 0 78.444 70.889" xml:space="preserve">
<circle opacity="0.5" fill="#49B3E0" cx="37.027" cy="38.027" r="30.688"/>
<g>
	<path fill="none" stroke="#003865" stroke-width="3" stroke-miterlimit="10" d="M5.848,31.154c0.509-1.504,1.583-1.996,3.139-1.995
		c4.207,0.007,8.376-0.496,12.503-1.309c11.831-2.331,22.779-6.824,32.881-13.374c0.135-0.088,0.272-0.178,0.401-0.271
		c0.411-0.302,0.476-0.61,0.071-0.988c-0.826-0.777-1.642-1.565-2.441-2.368c-0.874-0.88-0.674-1.605,0.539-1.904
		c4.228-1.04,8.46-2.068,12.694-3.085c1.198-0.289,1.742,0.34,1.45,1.647c-0.858,3.84-1.729,7.675-2.595,11.514
		c-0.075,0.333-0.138,0.671-0.223,1.003c-0.121,0.475-0.233,1.069-0.789,1.098c-0.394,0.02-0.883-0.243-1.194-0.526
		c-0.903-0.812-1.734-1.699-2.6-2.554c-0.609-0.604-0.788-0.622-1.516-0.131c-8.873,5.975-18.495,10.348-28.8,13.22
		c-6.449,1.798-13.016,2.874-19.728,3.015c-0.264,0.007-0.527-0.02-0.79-0.006c-1.499,0.061-2.528-0.57-3.005-2.015
		C5.848,31.803,5.848,31.479,5.848,31.154z"/>
	<path fill="none" stroke="#003865" stroke-width="3" stroke-miterlimit="10" d="M68.207,43.035c0,4.465,0.002,8.931,0,13.396
		c-0.001,2.089-1.136,3.232-3.221,3.233c-3.734,0.006-7.469,0.006-11.204,0c-2.043-0.001-3.208-1.155-3.211-3.194
		c-0.004-8.93-0.004-17.858,0-26.789c0.003-2.003,1.168-3.173,3.173-3.179c3.773-0.009,7.55-0.012,11.323,0.002
		c1.979,0.006,3.137,1.176,3.139,3.137C68.209,34.104,68.207,38.571,68.207,43.035z"/>
	<path fill="none" stroke="#003865" stroke-width="3" stroke-miterlimit="10" d="M29.467,46.909c0-3.19-0.002-6.382,0.001-9.571
		c0.001-2.075,1.142-3.215,3.241-3.219c3.714-0.008,7.425-0.009,11.137,0c2.08,0.006,3.243,1.16,3.245,3.231
		c0.007,6.359,0.007,12.72,0,19.081c-0.001,2.093-1.144,3.232-3.227,3.233c-3.732,0.006-7.464,0.006-11.197,0
		c-2.061-0.001-3.199-1.135-3.2-3.183C29.465,53.29,29.467,50.1,29.467,46.909z"/>
	<path fill="none" stroke="#003865" stroke-width="3" stroke-miterlimit="10" d="M25.954,50.335c0,2.08,0.006,4.161-0.002,6.242
		c-0.005,1.926-1.167,3.083-3.113,3.087c-3.795,0.007-7.588,0.007-11.382,0c-1.917-0.004-3.105-1.126-3.117-3.031
		c-0.029-4.201-0.029-8.405,0-12.605c0.013-1.89,1.227-3.04,3.12-3.044c3.795-0.007,7.589-0.007,11.384,0
		c1.923,0.006,3.103,1.19,3.108,3.11C25.96,46.176,25.956,48.254,25.954,50.335z"/>
</g>
</svg>
