<?xml version="1.0" encoding="utf-8"?>
<!-- Generator: Adobe Illustrator 17.0.0, SVG Export Plug-In . SVG Version: 6.00 Build 0)  -->
<!DOCTYPE svg PUBLIC "-//W3C//DTD SVG 1.1//EN" "http://www.w3.org/Graphics/SVG/1.1/DTD/svg11.dtd">
<svg version="1.1" id="Capa_1" xmlns="http://www.w3.org/2000/svg" xmlns:xlink="http://www.w3.org/1999/xlink" x="0px" y="0px"
	 width="78.444px" height="85px" viewBox="0 0 78.444 85" enable-background="new 0 0 78.444 85" xml:space="preserve">
<g>
	<path fill="#3FB2E2" d="M36.625,7.029c1.731,0,3.462,0,5.193,0c0.211,0.034,0.42,0.089,0.632,0.1
		c3.032,0.162,6.022,0.6,8.942,1.436c9.339,2.673,15.764,8.451,18.818,17.774c1.215,3.71,1.692,7.543,1.755,11.434
		c0.005,0.32,0.029,0.573,0.361,0.788c2.022,1.31,3.01,3.196,3.011,5.602c0.001,2.242,0.005,4.484-0.001,6.726
		c-0.009,3.74-2.772,6.515-6.516,6.544c-1.377,0.011-2.753,0.011-4.13-0.004c-0.301-0.003-0.456,0.089-0.56,0.375
		c-0.214,0.59-0.444,1.176-0.705,1.747c-3.568,7.785-9.117,13.587-17.084,16.915c-3.273,1.367-6.679,1.894-10.212,1.195
		c-4.548-0.9-8.475-3.056-11.996-5.995c-4.437-3.702-7.693-8.266-9.747-13.671c-0.167-0.44-0.374-0.584-0.843-0.572
		c-1.395,0.034-2.792,0.027-4.188,0.005c-2.816-0.045-5.285-1.984-6.02-4.703c-0.076-0.282-0.154-0.563-0.231-0.845
		c0-2.911,0-5.823,0-8.734c0.04-0.13,0.09-0.258,0.118-0.39c0.368-1.759,1.285-3.155,2.797-4.128
		c0.346-0.223,0.459-0.463,0.464-0.854c0.039-3.095,0.369-6.157,1.108-9.168c1.469-5.981,4.364-11.087,9.243-14.955
		c4.754-3.768,10.291-5.536,16.222-6.262C34.242,7.243,35.435,7.148,36.625,7.029z M47.076,36.07
		c0.94,1.164,1.605,2.353,1.951,3.754c-0.671-0.364-1.245-0.766-1.881-1.003c-1.617-0.604-3.241-1.203-4.897-1.683
		c-5.298-1.538-9.729-4.266-12.722-9.037c-0.097-0.155-0.243-0.279-0.454-0.516c-0.041,0.428-0.08,0.715-0.094,1.004
		c-0.152,3.16-1.105,6.06-2.911,8.653c-2.16,3.101-5.011,5.238-8.774,6.002c-0.44,0.089-0.578,0.238-0.594,0.67
		c-0.093,2.562,0.002,5.108,0.458,7.638c0.694,3.851,1.547,5.138,4.733,6.935c3.316,1.87,6.957,2.504,10.694,2.742
		c0.156,0.01,0.38-0.107,0.478-0.236c2.135-2.817,7.6-3.174,10.408-0.632c0.977,0.884,1.499,1.975,1.247,3.319
		c-0.203,1.083-0.863,1.885-1.748,2.497c-1.703,1.178-3.61,1.49-5.625,1.214c-1.709-0.234-3.227-0.881-4.296-2.304
		c-0.239-0.318-0.47-0.444-0.86-0.471c-3.529-0.239-6.979-0.846-10.243-2.281c-0.077-0.034-0.168-0.034-0.308-0.059
		c0.087,0.14,0.134,0.226,0.191,0.305c3.021,4.213,6.847,7.438,11.604,9.551c3.742,1.662,7.479,1.777,11.251,0.135
		c6.797-2.959,11.667-7.869,14.711-14.597c2.302-5.087,2.696-10.456,2.188-15.935c-0.023-0.25-0.23-0.537-0.434-0.707
		c-1.982-1.649-4.296-2.657-6.726-3.436C52.065,36.833,49.65,36.363,47.076,36.07z M12.765,37.542
		c0.047-0.211,0.095-0.381,0.123-0.554c0.449-2.783,1.167-5.492,2.266-8.091c2.679-6.337,7.109-10.881,13.692-13.114
		c5.74-1.947,11.617-2.059,17.519-0.889c4.979,0.987,9.274,3.275,12.669,7.114c3.054,3.455,4.837,7.547,5.911,11.979
		c0.285,1.177,0.503,2.371,0.751,3.556c0.81,0,1.589,0,2.418,0c0-0.205,0.019-0.379-0.003-0.548
		c-0.303-2.394-0.427-4.829-0.951-7.174c-1.8-8.05-6.454-13.76-14.251-16.732c-4.032-1.537-8.242-2.107-12.535-2.191
		c-4.427-0.086-8.8,0.273-13.054,1.58c-6.332,1.945-11.201,5.671-14.122,11.726c-1.512,3.133-2.303,6.464-2.651,9.908
		c-0.114,1.127-0.17,2.26-0.256,3.431C11.158,37.542,11.936,37.542,12.765,37.542z"/>
	<path fill="#3FB2E2" d="M29.779,49.754c-2.04-0.029-3.685-1.727-3.65-3.767c0.035-2.036,1.744-3.692,3.771-3.654
		c2.04,0.039,3.68,1.734,3.65,3.775C33.521,48.146,31.827,49.784,29.779,49.754z"/>
	<path fill="#3FB2E2" d="M48.616,49.755c-2.04,0.011-3.717-1.653-3.723-3.695c-0.006-2.038,1.662-3.719,3.698-3.727
		c2.032-0.008,3.711,1.662,3.723,3.703C52.326,48.073,50.664,49.744,48.616,49.755z"/>
</g>
</svg>
