<?xml version="1.0" encoding="utf-8"?>
<!-- Generator: Adobe Illustrator 17.0.0, SVG Export Plug-In . SVG Version: 6.00 Build 0)  -->
<!DOCTYPE svg PUBLIC "-//W3C//DTD SVG 1.1//EN" "http://www.w3.org/Graphics/SVG/1.1/DTD/svg11.dtd">
<svg version="1.1" id="Capa_1" xmlns="http://www.w3.org/2000/svg" xmlns:xlink="http://www.w3.org/1999/xlink" x="0px" y="0px"
	 width="78.444px" height="85px" viewBox="0 0 78.444 85" enable-background="new 0 0 78.444 85" xml:space="preserve">
<path fill="#3FB2E2" d="M5.659,69.322c0-14.055,0-28.11,0-42.164c0.946-2.945,3.019-3.972,6.028-3.911
	c5.819,0.118,11.642,0.038,17.464,0.023c0.3-0.001,0.718-0.063,0.878-0.261c0.642-0.795,1.204-1.655,1.831-2.541
	c-3.878-3.867-7.763-7.739-11.645-11.613c-1.042-1.04-1.058-1.477-0.109-2.527c0.392,0,0.784,0,1.176,0
	c0.287,0.298,0.569,0.602,0.861,0.895c3.738,3.745,7.478,7.488,11.218,11.231c0.288,0.288,0.49,0.609,1.042,0.322
	c3.393-1.763,6.806-1.739,10.229-0.036c0.212,0.105,0.667,0.04,0.831-0.124c4.105-4.082,8.186-8.187,12.272-12.289
	c0.392,0,0.784,0,1.176,0c0.949,1.049,0.931,1.486-0.109,2.527c-3.679,3.683-7.36,7.365-11.038,11.049
	c-0.211,0.212-0.411,0.435-0.599,0.636c0.523,0.694,1.078,1.3,1.474,1.996c0.338,0.594,0.736,0.763,1.393,0.76
	c6.13-0.024,12.259-0.022,18.389-0.009c2.353,0.005,4.042,1.276,4.763,3.508c0.041,0.126,0.115,0.242,0.174,0.363
	c0,14.055,0,28.11,0,42.164c-1.264,3.165-2.443,3.958-5.883,3.958c-2.769,0-5.538-0.001-8.307,0.002
	c-0.293,0-0.585,0.032-0.924,0.052c0,0.874,0.012,1.654-0.003,2.433c-0.018,0.975-0.47,1.427-1.447,1.446
	c-0.811,0.015-1.622,0.004-2.433,0.004c-10.629,0-21.257,0.001-31.886-0.001c-1.298,0-1.695-0.402-1.701-1.7
	c-0.003-0.719-0.001-1.438-0.001-2.236c-0.431,0-0.761,0-1.091,0c-2.993,0-5.986-0.002-8.978,0c-1.988,0.002-3.507-0.825-4.48-2.572
	C5.982,70.276,5.844,69.786,5.659,69.322z M39.543,25.801c-9.519,0-19.038-0.001-28.557,0.001c-1.993,0-2.808,0.81-2.808,2.785
	c-0.001,13.13-0.001,26.261,0,39.391c0,1.971,0.818,2.782,2.821,2.782c19.01,0.001,38.019,0.002,57.029,0
	c1.992,0,2.808-0.817,2.808-2.794c0.001-13.102,0-26.205,0-39.307c0-2.053-0.791-2.856-2.821-2.856
	C58.525,25.801,49.034,25.801,39.543,25.801z M23.317,74.648c10.84,0,21.593,0,32.364,0c0-0.457,0-0.863,0-1.292
	c-10.811,0-21.579,0-32.364,0C23.317,73.817,23.317,74.202,23.317,74.648z M32.94,23.229c4.435,0,8.706,0,13.15,0
	c-1.799-2.177-3.979-3.25-6.627-3.233C36.853,20.012,34.695,21.07,32.94,23.229z"/>
<path fill="#3FB2E2" d="M39.458,68.65c-9.097,0-18.194,0-27.291,0c-1.534,0-1.879-0.338-1.879-1.864
	c-0.001-12.344-0.001-24.688,0-37.031c0-1.533,0.325-1.851,1.894-1.851c18.222-0.001,36.444-0.001,54.665,0
	c1.553,0,1.879,0.324,1.879,1.866c0.001,12.316,0.001,24.632,0,36.947c0,1.634-0.309,1.933-1.978,1.933
	C57.652,68.65,48.555,68.65,39.458,68.65z M12.856,66.089c17.784,0,35.519,0,53.285,0c0-11.889,0-23.736,0-35.596
	c-17.796,0-35.526,0-53.285,0C12.856,42.391,12.856,54.219,12.856,66.089z"/>
</svg>
