<?xml version="1.0" encoding="utf-8"?>
<!-- Generator: Adobe Illustrator 17.0.0, SVG Export Plug-In . SVG Version: 6.00 Build 0)  -->
<!DOCTYPE svg PUBLIC "-//W3C//DTD SVG 1.1//EN" "http://www.w3.org/Graphics/SVG/1.1/DTD/svg11.dtd">
<svg version="1.1" id="Capa_1" xmlns="http://www.w3.org/2000/svg" xmlns:xlink="http://www.w3.org/1999/xlink" x="0px" y="0px"
	 width="78.444px" height="85px" viewBox="0 0 78.444 85" enable-background="new 0 0 78.444 85" xml:space="preserve">
<g>
	<path  d="M12.788,16.12h41.859c0.065,0.03,0.126,0.078,0.195,0.09c3.778,0.693,6.172,3.551,6.173,7.391
		c0.003,7.179,0.005,14.357-0.006,21.537c-0.001,0.59-0.043,1.194-0.174,1.769c-0.779,3.426-3.667,5.659-7.315,5.664
		c-6.974,0.007-13.949,0.006-20.923-0.008c-0.447,0-0.756,0.133-1.068,0.448c-2.856,2.878-5.729,5.737-8.592,8.609
		c-0.755,0.756-1.614,1.041-2.636,0.635c-0.925-0.368-1.396-1.161-1.397-2.316c-0.001-2.231-0.001-4.464-0.001-6.696v-0.67
		c-0.264,0-0.462,0-0.662,0c-1.487,0-2.976-0.002-4.463,0c-1.589,0.004-3.057-0.402-4.345-1.344
		c-2.126-1.555-3.08-3.681-3.075-6.297c0.014-7.048,0.004-14.098,0.006-21.145c0-0.317,0.014-0.632,0.037-0.947
		c0.217-3.072,2.396-5.702,5.366-6.476C12.106,16.275,12.448,16.201,12.788,16.12z"/>
	<path  d="M61.679,73.829c-0.563-0.408-1.186-0.754-1.677-1.234c-2.181-2.134-4.33-4.3-6.477-6.468
		c-0.271-0.273-0.544-0.381-0.927-0.38c-5.674,0.013-11.348,0.015-17.022,0.005c-2.956-0.005-5.427-1.884-6.216-4.677
		c-0.111-0.396-0.078-0.674,0.242-0.982c1.191-1.149,2.356-2.325,3.513-3.511c0.269-0.274,0.539-0.384,0.924-0.384
		c6.511,0.012,13.023,0.01,19.533,0.008c5.543-0.003,9.928-3.634,10.933-9.083c0.131-0.709,0.165-1.442,0.168-2.165
		c0.018-3.069,0.008-6.138,0.008-9.208v-0.71c1.692,0.065,3.351-0.051,4.94,0.232c2.421,0.432,4.005,1.996,4.788,4.342
		c0.068,0.207,0.145,0.411,0.218,0.616v20.315c-0.068,0.211-0.141,0.42-0.204,0.632c-0.739,2.5-2.855,4.3-5.445,4.514
		c-1.275,0.105-2.562,0.049-3.845,0.063c-0.213,0.003-0.428,0.001-0.688,0.001c0,1.732-0.053,3.385,0.016,5.032
		c0.06,1.437-0.382,2.497-1.779,3.041H61.679z"/>
</g>
</svg>
