<?xml version="1.0" encoding="utf-8"?>
<!-- Generator: Adobe Illustrator 17.0.0, SVG Export Plug-In . SVG Version: 6.00 Build 0)  -->
<!DOCTYPE svg PUBLIC "-//W3C//DTD SVG 1.1//EN" "http://www.w3.org/Graphics/SVG/1.1/DTD/svg11.dtd">
<svg version="1.1" id="Capa_1" xmlns="http://www.w3.org/2000/svg" xmlns:xlink="http://www.w3.org/1999/xlink" x="0px" y="0px"
	 viewBox="0 0 512 512" enable-background="new 0 0 512 512" xml:space="preserve">
<g>
	<path fill="#FFFFFF" d="M157.781,323.428c-2.613-8.004-4.303-15.944,1.637-23.349c3.011-1.916,5.671-4.453,9.306-5.265
		c11.765-1.693,20.456,2.955,26.582,12.891c5.828,7.756,10.987,15.858,13.161,25.501l-0.038-0.025
		c5.323,4.006,6.315,10.698,9.807,15.738c1.965-6.089-0.108-12.539,2.049-18.54c0.322-32.692,1.135-65.359-0.454-98.009
		c-2.17-11.788-1.638-22.539,11.078-28.557c19.456-5.903,30.522,2.329,30.559,22.795c0.036,19.619,0.008,39.239,0.008,60.76
		c4.423-5.916,7.841-10.606,13.669-11.931c5.71-1.298,11.41-1.741,16.289,2.579c-0.535,1.342-1.007,2.808,0.082,3.966
		c0.699,0.744,0.188,2.404,1.626,2.255c0.229-0.024,0.254-1.961,1.253-2.619c6.122,4.005,7.064,10.335,7.147,18.852
		c7.481-12.535,17.342-14.304,28.805-11.054c1.657,0.677,3.011,1.65,3.45,3.521c-0.427,5.696,1.595,10.737,4.356,15.516
		c1.205,2.085,0.875,6.215,4.999,5.02c3.505-1.016,8.24-0.535,8.887-6.112c0.306-2.632,0.631-5.574,3.915-6.604
		c5.449,1.501,11.857-1.971,16.578,3.219l-0.016-0.002c1.621,0.86,3.164,1.797,3.654,3.757c0.46,0.591,0.921,1.182,1.382,1.773
		c3.68,2.778,3.324,6.707,3.328,10.712c0.017,21.802-0.298,43.605,0.141,65.398c-0.405,5.878-2.589,11.251-4.804,16.614l0.021-0.053
		c-1.657,3.51-0.778,7.884-3.734,10.952l0.038-0.074c-1.013,2.49-1.764,5.095-3.219,7.393
		c-7.888,14.923-17.848,29.172-14.909,47.524c1.003,6.264-2.935,6.142-7.275,5.221c-1.855-1.298-1.711-3.858-3.374-5.25
		c-1.631-0.56-3.123,0.266-4.698,0.416c-31.399,0.606-62.77-0.011-94.119,0.35c-3.225,0.615-6.176-0.586-9.175-1.469
		c-1.744-0.335-2.491-2.008-3.84-2.885c-11.354-17.361-23.163-34.379-37.401-49.564"/>
	<path fill="#FFFFFF" d="M174.046,363.946"/>
	<path fill="#FFFFFF" d="M359.918,138.817c0.063-12.458,10.123-22.542,22.583-22.639c12.18-0.094,22.645,10.345,22.632,22.575
		c-0.013,12.451-10.236,22.681-22.595,22.612C370.022,161.295,359.856,151.161,359.918,138.817z"/>
	<path fill="#FFFFFF" d="M158.009,103.361c-12.464-0.163-22.544-10.548-22.198-22.868c0.345-12.283,11.02-22.634,22.995-22.298
		c12.468,0.35,22.386,10.682,22.154,23.079C180.727,93.736,170.554,103.525,158.009,103.361z"/>
	<path fill="#FFFFFF" d="M122.942,305.126c-0.054,12.558-10.074,22.536-22.52,22.425c-12.348-0.111-22.685-10.488-22.591-22.679
		c0.094-12.136,10.879-22.779,22.85-22.55C113.228,282.563,122.996,292.569,122.942,305.126z"/>
	<path fill="#FFFFFF" d="M77.82,245.744c-12.838-0.065-22.339-9.599-22.307-22.384c0.032-12.837,9.61-22.36,22.428-22.301
		c12.468,0.058,22.605,10.073,22.685,22.411C100.704,235.632,90.286,245.807,77.82,245.744z"/>
	<path fill="#FFFFFF" d="M217.728,58.038c0.026-12.736,9.616-22.168,22.491-22.119c12.912,0.049,22.043,9.39,22.013,22.518
		c-0.029,12.775-9.913,22.623-22.416,22.334C227.015,80.474,217.702,70.89,217.728,58.038z"/>
	<path fill="#FFFFFF" d="M121.411,141.509c-0.019,12.777-9.57,22.222-22.467,22.22c-12.735-0.002-22.333-9.699-22.268-22.498
		c0.064-12.689,9.723-22.261,22.544-22.342C111.668,118.811,121.43,128.762,121.411,141.509z"/>
	<path fill="#FFFFFF" d="M427.579,220.452c-0.028,12.736-9.705,22.324-22.463,22.256c-12.923-0.069-22.248-9.466-22.248-22.42
		c0-12.697,9.702-22.328,22.441-22.277C417.931,198.06,427.607,207.81,427.579,220.452z"/>
	<path fill="#FFFFFF" d="M344.218,79.609c-0.111,13.049-9.352,22.202-22.372,22.157c-12.724-0.043-22.168-9.661-22.098-22.504
		c0.071-12.833,9.659-22.315,22.449-22.201C334.993,57.175,344.327,66.733,344.218,79.609z"/>
	<path fill="#FFFFFF" d="M356.496,164.915c-0.301,8.941-6.819,15.175-15.693,15.008c-9.039-0.17-15.89-7.387-15.539-16.37
		c0.342-8.74,7.055-15.001,15.983-14.905C350.595,148.747,356.817,155.383,356.496,164.915z"/>
	<path fill="#FFFFFF" d="M298.631,138.25c-9.309-0.109-15.793-6.879-15.485-16.166c0.284-8.546,7.302-15.211,15.891-15.092
		c8.983,0.124,15.716,7.293,15.441,16.441C314.213,132.291,307.724,138.357,298.631,138.25z"/>
	<path fill="#FFFFFF" d="M200.176,124.33c-0.218,8.629-7.205,15.497-15.687,15.421c-8.742-0.078-16.183-7.776-15.85-16.398
		c0.33-8.563,7.402-15.415,15.842-15.349C193.491,108.073,200.405,115.265,200.176,124.33z"/>
	<path fill="#FFFFFF" d="M355.583,236.697c-8.965-0.507-14.696-7.209-14.16-16.561c0.51-8.916,7.488-15.178,16.352-14.675
		c8.454,0.48,15.208,7.944,14.883,16.447C372.304,231.161,365.28,237.245,355.583,236.697z"/>
	<path fill="#FFFFFF" d="M159.044,166.149c-0.155,8.833-7.606,15.841-16.537,15.553c-8.529-0.275-15.381-7.305-15.398-15.796
		c-0.017-8.765,7.382-15.682,16.503-15.427C152.148,150.717,159.189,157.867,159.044,166.149z"/>
	<path fill="#FFFFFF" d="M143.637,264.707c8.947-0.228,15.682,6.088,16.018,15.021c0.327,8.703-7.079,16.515-15.651,16.507
		c-8.499-0.007-15.467-7.02-15.584-15.685C128.299,271.658,134.757,264.934,143.637,264.707z"/>
	<path fill="#FFFFFF" d="M127.693,207.557c8.918-0.256,15.628,6.039,16.021,15.027c0.42,9.614-5.809,16.217-15.402,16.329
		c-8.751,0.102-15.837-6.694-15.921-15.272C112.306,215.006,119.16,207.801,127.693,207.557z"/>
	<path fill="#FFFFFF" d="M241.705,92.282c8.647,0.098,15.828,7.164,15.817,15.564c-0.011,8.893-7.507,16.069-16.514,15.809
		c-9.02-0.26-14.94-6.645-14.846-16.013C226.253,98.677,232.824,92.182,241.705,92.282z"/>
	<path fill="#FFFFFF" d="M197.364,250.807c-0.54,5.2-3.272,8.639-8.536,8.802c-5.222,0.162-8.797-2.987-9.039-8.171
		c-0.261-5.612,3.176-9.282,8.824-9.29C193.83,242.142,196.635,245.679,197.364,250.807z"/>
	<path fill="#FFFFFF" d="M305.351,227.295c-5.364-0.629-8.628-3.745-8.695-8.837c-0.068-5.13,3.308-8.819,8.438-8.828
		c5.405-0.009,9.26,3.287,9.074,9.132C313.999,224.093,310.379,226.644,305.351,227.295z"/>
	<path fill="#FFFFFF" d="M305.423,186.965c-0.249,5.697-3.517,8.654-8.577,8.811c-5.231,0.163-8.46-3.029-8.636-8.369
		c-0.192-5.839,3.157-9.287,8.804-9.095C302.093,178.484,305.081,181.867,305.423,186.965z"/>
	<path fill="#FFFFFF" d="M188.652,219.063c-0.339,5.434-3.068,8.724-8.347,9.065c-5.334,0.345-8.926-2.765-9.258-7.862
		c-0.357-5.475,2.766-9.204,8.652-9.337C185.136,210.807,187.757,214.163,188.652,219.063z"/>
	<path fill="#FFFFFF" d="M241.985,165.051c-5.295-0.827-8.545-3.455-8.468-8.914c0.084-5.945,3.606-8.916,9.245-8.539
		c5.205,0.347,8.125,3.651,7.869,9.06C250.372,162.156,246.787,164.373,241.985,165.051z"/>
	<path fill="#FFFFFF" d="M208.924,173.278c-3.99,0.118-6.934-3.389-6.947-8.307c-0.013-4.833,2.848-8.63,8.376-8.724
		c5.826-0.099,9.137,3.241,9.004,8.86C219.235,170.261,216.053,173.269,208.924,173.278z"/>
	<path fill="#FFFFFF" d="M231.934,464.352c1.335,0.573,2.67,1.146,4.005,1.718c2.267,1.975,4.43,3.281,7.913,3.206
		c29.538-0.642,59.084-0.163,88.628-0.344c4.452-0.027,9.157,0.727,12.845-2.87c2.641,1.858,1.553,4.665,1.814,7.128
		c-35.962,0.139-71.924,0.199-107.884,0.485C232.243,473.731,233.669,467.995,231.934,464.352z"/>
	<path fill="#FFFFFF" d="M297.856,258.579c-5.786-0.339-8.99-3.059-9.182-8.361c-0.214-5.909,3.36-8.81,8.941-8.827
		c5.458-0.016,8.348,3.557,8.294,8.623C305.855,255.134,302.625,258.112,297.856,258.579z"/>
	<path fill="#FFFFFF" d="M196.501,187.775c-0.358,5.121-2.733,8.56-8.282,8.754c-5.455,0.191-8.664-2.767-8.843-8.112
		c-0.176-5.251,2.499-8.587,8.134-8.764C193.014,179.479,195.88,182.307,196.501,187.775z"/>
	<path fill="#FFFFFF" d="M282.162,164.477c-0.683,5.323-3.383,8.384-8.947,8.292c-5.709-0.095-8.204-3.553-8.221-8.746
		c-0.018-5.564,3.424-8.255,8.754-8.242C279.374,155.795,281.722,159.323,282.162,164.477z"/>
	<path fill="#FFFFFF" d="M294.395,281.618c-0.154,2.681,0.051,5.512-3.39,7.022c4.524-3.564-8.675-7.071,0.429-10.625
		C292.421,279.217,293.408,280.418,294.395,281.618z"/>
	<path fill="#FFFFFF" d="M345.325,466.062c-0.401,4.934-3.794,5.481-7.769,5.476c-31.807-0.037-63.615-0.061-95.422,0.028
		c-3.995,0.011-6.544-0.937-6.195-5.497c3.252-3.731,3.54,1.574,5.493,1.802c4.678-1.838,9.554-0.8,14.32-0.823
		c26.287-0.125,52.575-0.031,78.862-0.1c2.956-0.008,6.054,0.8,8.865-0.886C344.094,464.811,344.709,464.815,345.325,466.062z"/>
	<path fill="#FFFFFF" d="M352.493,303.53c0.645-0.353,1.29-0.706,1.934-1.059c3.15,11.745-6.564,11.577-13.203,14.254
		c-1.162,0.469-2.836,0.722-2.896-0.72c-0.347-8.241-10.123-14.269-5.5-23.613c8.457,4.265,6.671,13.619,10.121,20.371
		C346.719,310.294,349.639,306.946,352.493,303.53z"/>
	<path fill="#FFFFFF" d="M221.562,332.952c0-33.989,0.001-67.978,0.001-101.967c2.143,1.886,1.619,4.436,1.621,6.808
		c0.023,29.45,0.023,58.9,0,88.351C223.182,328.517,223.707,331.068,221.562,332.952z"/>
	<path fill="#FFFFFF" d="M343.479,466.063c-2.685,2.972-6.243,1.747-9.421,1.756c-30.875,0.09-61.751,0.053-92.626,0.053
		c2.681-2.98,6.24-1.757,9.418-1.766C281.726,466.02,312.603,466.059,343.479,466.063z"/>
	<path fill="#FFFFFF" d="M174.342,295.912c1.699,1.163,3.136,1.612,3.464,2.481c0.752,1.991-1.157,1.606-2.16,1.664
		c-1.186,0.069-2.61-0.094-2.571-1.732C173.094,297.582,173.82,296.857,174.342,295.912z"/>
	<path fill="#FFFFFF" d="M352.493,303.53c-0.835,5.503-3.914,8.686-9.544,9.234c0.36-4.103,4.365-5.654,6.137-8.769
		C350.222,303.841,351.358,303.685,352.493,303.53z"/>
</g>
</svg>
