<?xml version="1.0" encoding="utf-8"?>
<!-- Generator: Adobe Illustrator 17.0.0, SVG Export Plug-In . SVG Version: 6.00 Build 0)  -->
<!DOCTYPE svg PUBLIC "-//W3C//DTD SVG 1.1//EN" "http://www.w3.org/Graphics/SVG/1.1/DTD/svg11.dtd">
<svg version="1.1" id="Capa_1" xmlns="http://www.w3.org/2000/svg" xmlns:xlink="http://www.w3.org/1999/xlink" x="0px" y="0px"
	 viewBox="0 0 131.667 116.5" enable-background="new 0 0 131.667 116.5" xml:space="preserve">
<g>
	<path d="M23.623,67.654c0.26-0.869,0.834-1.201,1.745-1.215c5.11-0.083,10.219-0.21,15.328-0.323
		c0.263-0.006,0.525-0.024,0.828-0.038c-0.691-1.277-1.362-2.453-1.97-3.661c-0.363-0.722-0.067-1.487,0.599-1.794
		c0.625-0.288,1.353-0.018,1.738,0.647c0.05,0.087,0.084,0.184,0.13,0.273c3.062,5.951,7.381,10.792,13.219,14.059
		c4.815,2.694,9.832,5.028,14.777,7.487c1.159,0.576,2.369,0.47,3.469-0.225c2.352-1.485,2.391-4.787,0.047-6.332
		c-2.779-1.831-5.605-3.589-8.399-5.397c-3.583-2.317-5.041-6.318-3.805-10.409c0.532-1.762,1.079-3.519,1.625-5.277
		c1.078-3.473,3.81-5.429,7.439-5.305c4.781,0.163,9.561,0.365,14.342,0.495c0.932,0.025,1.526,0.36,2.071,1.096
		c4.317,5.826,8.665,11.628,13.01,17.432c0.224,0.3,0.477,0.591,0.764,0.828c1.867,1.538,4.604,1.437,6.363-0.219
		c1.798-1.693,2.02-4.366,0.504-6.46c-4.177-5.772-8.375-11.529-12.545-17.306c-1.388-1.923-2.769-3.844-4.642-5.341
		c-1.603-1.281-3.269-2.549-5.279-3.02c-6.429-1.505-12.886-2.888-19.333-4.314c-1.718-0.38-3.406-0.245-5.06,0.339
		c-6.658,2.351-13.315,4.706-19.974,7.056c-6.467,2.282-13.116,3.087-19.942,2.433c-1.541-0.148-1.995-1.076-1.172-2.382
		c0.331-0.122,0.662-0.245,0.994-0.367c0.26,0.059,0.517,0.148,0.78,0.171c6.344,0.561,12.522-0.231,18.527-2.335
		c6.569-2.302,13.134-4.614,19.687-6.96c2.351-0.842,4.702-0.987,7.132-0.439c5.728,1.292,11.449,2.622,17.202,3.793
		c3.199,0.651,5.867,2.189,8.354,4.185c0.375,0.301,0.846,0.548,1.311,0.66c3.797,0.919,7.604,1.797,11.406,2.695
		c2.2,0.52,3.961,1.753,4.714,3.864c0.501,1.406,1.254,1.908,2.607,2.247c2.82,0.706,4.743,3.333,4.848,6.248
		c0.107,2.965-1.642,5.668-4.418,6.646c-0.949,0.335-1.986,0.421-2.981,0.621c1.903,3.042,2.098,6.195-0.266,9.117
		c-2.389,2.954-5.533,3.414-9.004,2.101c-0.018,0.069-0.042,0.114-0.039,0.157c0.008,0.151,0.024,0.302,0.038,0.452
		c0.493,5.047-1.322,9.067-5.382,12.083c-0.42,0.312-0.868,0.587-1.302,0.879c-1.041,0.385-2.082,0.769-3.123,1.154
		c-0.146,0.002-0.295-0.014-0.438,0.009c-4.941,0.801-9.031-0.728-12.305-4.489c-0.19-0.219-0.359-0.456-0.547-0.696
		c-0.096,0.09-0.168,0.13-0.201,0.192c-1.484,2.832-5.321,4.297-8.917,2.39c-3.918-2.078-7.934-3.972-11.903-5.954
		c-4.85-2.422-8.974-5.752-12.368-9.976c-0.341-0.424-0.686-0.561-1.207-0.548c-5.685,0.139-11.37,0.265-17.056,0.368
		c-0.531,0.01-1.066-0.17-1.6-0.262C23.903,68.411,23.763,68.033,23.623,67.654z M78.257,78.802
		c1.943,5.194,7.814,7.873,13.019,5.941c5.24-1.945,7.915-7.813,5.954-13.064c-1.945-5.21-7.778-7.871-13.005-5.935
		C78.981,67.688,76.297,73.56,78.257,78.802z M87.577,57.204c-0.103-0.136-0.329-0.253-0.497-0.253
		c-3.969-0.004-7.948-0.435-11.9,0.27c-4.083,0.727-7.806,2.317-11.188,4.704c-0.207,0.146-0.37,0.475-0.4,0.736
		c-0.288,2.485,0.532,4.574,2.588,5.985c2.803,1.923,5.71,3.693,8.574,5.525c0.059,0.038,0.138,0.046,0.254,0.083
		c0.471-4.084,2.278-7.386,5.734-9.651c3.458-2.267,7.203-2.675,11.346-1.379C90.5,61.098,89.047,59.145,87.577,57.204z
		 M103.232,53.024c1.196,1.648,2.379,3.305,3.602,4.932c0.204,0.271,0.557,0.487,0.885,0.594c0.62,0.2,1.265,0.342,1.91,0.438
		c2.149,0.32,4.148-1.035,4.684-3.142c0.527-2.075-0.511-4.368-2.563-4.934c-3.97-1.095-8.001-1.969-12.216-2.986
		C100.853,49.743,102.042,51.384,103.232,53.024z M85.309,54.37c-0.274-0.706-0.528-1.106-1.241-1.128
		c-4.598-0.141-9.195-0.323-13.793-0.476c-2.38-0.079-4.047,1.103-4.781,3.36c-0.209,0.642-0.4,1.291-0.673,2.179
		C71.259,54.441,78.113,53.761,85.309,54.37z M98.526,45.055c2.597,0.464,5.15,1.171,7.722,1.775
		c0.265,0.062,0.532,0.111,0.948,0.198c-0.561-1.145-1.36-1.86-2.429-2.135c-2.896-0.744-5.813-1.404-8.927-2.146
		C96.584,43.911,97.147,44.809,98.526,45.055z"/>
</g>
</svg>
