<?xml version="1.0" encoding="utf-8"?>
<!-- Generator: Adobe Illustrator 17.0.0, SVG Export Plug-In . SVG Version: 6.00 Build 0)  -->
<!DOCTYPE svg PUBLIC "-//W3C//DTD SVG 1.1//EN" "http://www.w3.org/Graphics/SVG/1.1/DTD/svg11.dtd">
<svg version="1.1" id="Capa_1" xmlns="http://www.w3.org/2000/svg" xmlns:xlink="http://www.w3.org/1999/xlink" x="0px" y="0px"
	  viewBox="0 0 512 512" enable-background="new 0 0 512 512" xml:space="preserve">
<g>
	<path d="M89.577,39.346v398.805l266.722,0.572V108.148l-68.992-68.802C287.307,39.346,89.577,39.346,89.577,39.346z
		 M339.403,421.755L339.403,421.755l-232.871-0.499V56.301H269.53v76.523h69.873V421.755z M339.389,115.884h-52.933V62.422
		l52.919,52.757v0.705H339.389z M299.168,453.711h16.896v23.267l-266.707-0.543V77.615h27.362v16.94H66.282V459.51l232.886,0.514
		V453.711z"/>
</g>
<g>
	<path stroke="#000000" stroke-width="2" stroke-miterlimit="10" d="M228.079,171.48c0,6.333,0,12.667,0,19.098
		c-2.833,0-5.426,0-8.336,0c0-6.352,0-12.725,0-19.098C222.521,171.48,225.3,171.48,228.079,171.48z"/>
	<path stroke="#000000" stroke-width="2" stroke-miterlimit="10" d="M129.969,257.727c5.982,0.027,11.964,0.054,17.946,0.08
		c0.626,0.003,1.252,0,1.957,0c0,2.745,0,5.283,0,7.935c-6.692,0-13.297,0-19.903,0C129.969,263.07,129.969,260.398,129.969,257.727
		z"/>
	<path stroke="#000000" stroke-width="2" stroke-miterlimit="10" d="M198.997,332.678c-0.454-6.433-0.481-12.932-1.461-19.284
		c-1.456-9.435-5.711-17.733-12.16-24.815c-7-7.687-11.752-16.483-13.433-26.806c-2.593-15.924,1.825-29.823,12.494-41.743
		c24.854-27.767,71.394-21.193,87.669,12.326c8.834,18.193,5.829,40.146-8.13,54.831c-9.944,10.461-14.286,22.769-14.326,36.908
		c-0.019,6.572-0.019,13.144-0.041,19.716c-0.029,8.83-6.658,15.494-15.507,15.545c-6.679,0.038-13.358,0.041-20.037-0.001
		c-8.805-0.056-15.457-6.773-15.49-15.587c-0.014-3.687-0.002-7.374-0.002-11.06C198.713,332.697,198.855,332.688,198.997,332.678z
		 M241.495,326.927c0-1-0.034-1.847,0.006-2.69c0.143-3.039,0.121-6.1,0.503-9.11c1.602-12.62,6.877-23.399,15.544-32.832
		c11.286-12.285,14.314-26.808,8.739-42.547c-9.423-26.601-42.609-37.509-66.627-22.036c-24.722,15.926-26.51,46.059-9.403,64.781
		c11.124,12.175,16.815,26.555,16.526,43.164c-0.007,0.405,0.068,0.812,0.11,1.27C218.426,326.927,229.843,326.927,241.495,326.927z
		 M241.839,335.078c-11.635,0-23.087,0-34.605,0c0,3.497-0.18,6.914,0.052,10.302c0.223,3.256,3.302,5.91,6.72,5.95
		c6.996,0.081,13.994,0.089,20.99-0.002c3.616-0.047,6.691-3.079,6.82-6.618C241.929,341.566,241.839,338.414,241.839,335.078z"/>
	<path stroke="#000000" stroke-width="2" stroke-miterlimit="10" d="M317.805,257.91c0,2.658,0,5.159,0,7.785
		c-6.581,0-13.117,0-19.798,0c0-2.532,0-5.106,0-7.785C304.574,257.91,311.114,257.91,317.805,257.91z"/>
	<path stroke="#000000" stroke-width="2" stroke-miterlimit="10" d="M160.551,195.196c4.403,4.245,8.999,8.676,13.584,13.097
		c-1.945,1.878-3.811,3.678-5.805,5.604c-4.416-4.24-9.019-8.659-13.475-12.937C156.743,199.049,158.597,197.173,160.551,195.196z"
		/>
	<path stroke="#000000" stroke-width="2" stroke-miterlimit="10" d="M279.307,213.98c-1.903-1.907-3.743-3.75-5.703-5.714
		c4.471-4.313,9.062-8.74,13.618-13.136c1.907,1.958,3.715,3.815,5.648,5.8C288.415,205.217,283.819,209.638,279.307,213.98z"/>
</g>
<path d="M472.376,418.434c-4.404,8.542-8.864,17.056-13.199,25.633c-5.753,11.384-11.465,22.789-17.069,34.246
	c-1.646,3.365-3.874,5.623-7.776,5.613c-3.901-0.01-6.073-2.295-7.738-5.656c-9.478-19.139-19.119-38.197-28.586-57.341
	c-0.949-1.919-1.56-4.23-1.561-6.36c-0.076-100.402-0.067-200.803-0.062-301.205c0-0.889,0.016-1.789,0.142-2.667
	c0.565-3.946,3.084-6.168,6.828-6.481c3.776-0.316,6.687,1.538,7.694,5.357c0.518,1.966,0.517,4.105,0.517,6.165
	c0.023,95.352,0.02,190.704,0.02,286.056c0,1.917,0,3.834,0,6.54c5.247,0,10.214-0.005,15.182,0.002
	c2.525,0.004,5.056-0.078,7.572,0.072c4.428,0.264,7.45,3.184,7.622,7.173c0.175,4.083-2.939,7.623-7.45,7.879
	c-4.738,0.27-9.502,0.076-14.254,0.106c-1.021,0.006-2.041,0.103-3.846,0.201c5.993,12.011,11.771,23.591,17.91,35.894
	c3.96-7.861,7.083-15.355,11.301-22.172c9.449-15.269,11.986-31.511,11.882-49.444c-0.623-106.636-0.304-213.277-0.312-319.917
	c-0.001-12.858-6.844-21.854-18.443-24.351c-13.067-2.813-26.173,7.029-27.025,20.377c-0.188,2.938-0.027,5.898-0.027,9.483
	c6.801,0,13.426-0.043,20.05,0.029c1.755,0.019,3.608,0.101,5.236,0.67c3.493,1.22,5.245,4.011,4.884,7.614
	c-0.377,3.763-2.626,6.629-6.542,6.716c-10.835,0.239-21.694,0.378-32.505-0.18c-2.158-0.111-5.803-3.38-5.935-5.38
	c-0.661-10.013-1.907-20.238,1.776-29.981c4.807-12.718,14.043-20.637,27.154-24.102c0.979-0.259,1.927-0.631,2.89-0.95
	c3.862,0,7.724,0,11.586,0c0.941,0.334,1.865,0.729,2.826,0.992c13.152,3.597,22.25,11.689,27.1,24.463
	c0.824,2.17,1.444,4.418,2.158,6.63C472.376,179.584,472.376,299.009,472.376,418.434z"/>
<path d="M442.76,248.575c0,43.286,0,86.571-0.002,129.857c0,1.452,0.075,2.912-0.055,4.356c-0.357,3.958-3.705,6.858-8.018,7.047
	c-3.986,0.175-7.795-2.351-8.657-5.976c-0.366-1.542-0.298-3.176-0.298-4.768c-0.012-87.153-0.017-174.305,0.024-261.458
	c0.001-1.998,0.118-4.128,0.899-5.965c1.446-3.399,4.693-4.846,8.764-4.393c4.096,0.455,6.602,2.638,7.211,6.22
	c0.266,1.567,0.126,3.189,0.126,4.786C442.761,161.713,442.76,205.144,442.76,248.575z"/>
</svg>
