<?xml version="1.0" encoding="utf-8"?>
<!-- Generator: Adobe Illustrator 16.0.0, SVG Export Plug-In . SVG Version: 6.00 Build 0)  -->
<!DOCTYPE svg PUBLIC "-//W3C//DTD SVG 1.1//EN" "http://www.w3.org/Graphics/SVG/1.1/DTD/svg11.dtd">
<svg version="1.1" id="Layer_1" xmlns="http://www.w3.org/2000/svg" xmlns:xlink="http://www.w3.org/1999/xlink" x="0px" y="0px"
	  viewBox="0 0 327.027 327.031" enable-background="new 0 0 327.027 327.031"
	 xml:space="preserve">
<g>
	<defs>
		<rect id="SVGID_1_" x="-92" y="-93" width="512" height="512"/>
	</defs>
	<clipPath id="SVGID_2_">
		<use xlink:href="#SVGID_1_"  overflow="visible"/>
	</clipPath>
	<path clip-path="url(#SVGID_2_)" fill="#000000" d="M282.961,0H44.066C19.73,0,0,19.73,0,44.066v238.895
		c0,24.339,19.73,44.066,44.066,44.066h117.821l0.203-116.859h-30.363c-3.946,0-7.149-3.192-7.161-7.137l-0.148-37.672
		c-0.016-3.965,3.199-7.191,7.164-7.191h30.309v-36.399c0-42.238,25.796-65.238,63.476-65.238h30.922
		c3.953,0,7.164,3.207,7.164,7.164v31.762c0,3.957-3.207,7.164-7.16,7.164l-18.977,0.011c-20.492,0-24.461,9.735-24.461,24.028
		v31.511h45.027c4.293,0,7.621,3.747,7.113,8.004l-4.465,37.672c-0.426,3.606-3.484,6.321-7.113,6.321h-40.359l-0.203,116.863
		h70.105c24.336,0,44.066-19.731,44.066-44.067V44.066C327.027,19.73,307.297,0,282.961,0"/>
</g>
</svg>
