<?xml version="1.0" encoding="utf-8"?>
<!-- Generator: Adobe Illustrator 18.0.0, SVG Export Plug-In . SVG Version: 6.00 Build 0)  -->
<!DOCTYPE svg PUBLIC "-//W3C//DTD SVG 1.1//EN" "http://www.w3.org/Graphics/SVG/1.1/DTD/svg11.dtd">
<svg version="1.1" id="Capa_1" xmlns="http://www.w3.org/2000/svg" xmlns:xlink="http://www.w3.org/1999/xlink" x="0px" y="0px"
	 viewBox="0 0 44.6 49.8" enable-background="new 0 0 44.6 49.8" xml:space="preserve">
<path d="M22.6,0c0.9,0.3,1.2,1,1.2,1.9c0,4.4,0,8.8,0,13.3c0,0.2-0.1,0.4,0,0.5c0.1,0.2,0.3,0.4,0.5,0.4
	c0.2,0,0.4-0.2,0.5-0.4c0.1-0.1,0-0.3,0-0.5c0-3.8,0-7.7,0-11.5c0-0.3,0-0.6,0.1-0.8c0.2-0.7,0.7-1.1,1.4-1.1c0.7,0,1.3,0.4,1.4,1.1
	c0.1,0.3,0.1,0.5,0.1,0.8c0,4.1,0,8.3,0,12.4c0,0.2,0,0.4,0,0.5c0.1,0.2,0.3,0.4,0.5,0.4c0.2,0,0.4-0.2,0.5-0.4c0.1-0.1,0-0.3,0-0.5
	c0-2.2,0-4.4,0-6.6c0-0.8,0.4-1.4,1.1-1.6c0.9-0.3,1.8,0.3,1.9,1.3c0,0.2,0,0.4,0,0.5c0,4.2,0,8.5,0,12.7c0,2.3-0.6,4.2-2.1,6
	c-0.6,0.7-1.1,1.5-1.7,2.3c-0.5,0.8-0.8,1.6-0.7,2.6c0.2,3.3,0.4,6.5,0.6,9.8c0.2,2.2,0.4,4.5,0.5,6.7c-3.4,0-6.7,0-10.1,0
	c0.3-5,0.5-10,0.8-15.1c0-0.7,0-1.5,0-2.2c0-0.5-0.2-0.9-0.6-1.1c-0.5-0.4-0.9-0.7-1.4-1c-1.3-0.9-2.4-2-3.3-3.4
	c-0.8-1.2-1.1-2.6-1.1-4c-0.1-2.9,0-5.8,0-8.7c0-0.9,0.6-1.6,1.5-1.6c0.9,0,1.5,0.7,1.5,1.6c0,1.5,0,3.1,0,4.6c0,0.2,0,0.4,0,0.5
	c0.1,0.2,0.3,0.4,0.5,0.4c0.2,0,0.4-0.2,0.5-0.4c0.1-0.1,0-0.3,0-0.5c0-5.1,0-10.3,0-15.4c0-1.1,0.6-1.8,1.6-1.7
	c0.6,0,1.2,0.5,1.3,1.1c0.1,0.3,0.1,0.5,0.1,0.8c0,3.8,0,7.7,0,11.5c0,0.2,0,0.4,0,0.5c0.1,0.2,0.3,0.4,0.5,0.4
	c0.2,0,0.4-0.2,0.5-0.4c0.1-0.1,0-0.3,0-0.5c0-4.5,0-8.9,0-13.4C20.7,1,21,0.3,21.9,0C22.1,0,22.3,0,22.6,0z M27.7,22.8
	c0-1.1-0.4-1.9-1.3-2.4c-0.9-0.6-1.9-0.6-2.8-0.1c-0.3,0.1-0.4,0.2-0.7,0c-1.2-0.7-2.6-0.4-3.5,0.6c-1,1.2-0.9,3,0.4,4.2
	c0.7,0.7,1.5,1.2,2.2,1.8c0.3,0.3,0.6,0.6,0.8,0.9c0.3,0.4,0.5,0.4,0.9,0c0.2-0.3,0.4-0.6,0.7-0.8c0.5-0.4,1-0.7,1.5-1.1
	C26.9,25.1,27.7,24.2,27.7,22.8z"/>
<path d="M8.9,49.8c-0.2-1.3-0.3-2.6-0.5-3.9c-0.4-2.6-0.8-5.2-1.1-7.8c-0.1-0.6-0.4-1-0.9-1.2
	c-0.9-0.4-1.7-0.9-2.5-1.4c-1.4-0.8-2.1-2.1-2.5-3.6c-0.5-2.1-0.9-4.2-1.3-6.3c-0.1-0.7,0.2-1.3,0.8-1.4c0.6-0.1,1.2,0.3,1.4,1
	c0.2,1.1,0.4,2.1,0.6,3.2c0,0.1,0,0.2,0.1,0.2c0.1,0.1,0.3,0.3,0.4,0.4c0.1-0.2,0.3-0.4,0.3-0.5c-0.1-0.9-0.3-1.8-0.5-2.7
	C2.5,23,2,20.1,1.4,17.3c-0.2-0.8,0.2-1.4,0.8-1.5c0.7-0.1,1.2,0.3,1.3,1.1C4,19,4.4,21,4.8,23.1c0.1,0.8,0.3,1.5,0.4,2.3
	c0.1,0.3,0.1,0.5,0.5,0.4C6,25.8,6,25.5,6,25.2c-0.6-3-1.1-6-1.7-9c-0.1-0.3-0.1-0.6-0.2-0.9c-0.1-0.8,0.2-1.3,0.8-1.5
	c0.7-0.1,1.2,0.3,1.3,1.1c0.2,1.2,0.5,2.4,0.7,3.7c0.4,2,0.8,4.1,1.2,6.1c0.1,0.3,0.1,0.5,0.5,0.5c0.4-0.1,0.3-0.4,0.3-0.6
	c-0.5-2.7-1.1-5.5-1.6-8.2c0-0.1-0.1-0.3-0.1-0.4c-0.1-0.8,0.2-1.2,0.9-1.4c0.6-0.1,1.1,0.3,1.2,1c0.2,0.7,0.3,1.4,0.4,2
	c0.5,2.4,0.9,4.8,1.4,7.2c0.1,0.6,0.3,0.7,0.8,0.4c0.2,0.5,0.3,1,0.5,1.5c0.5,1.2,1.3,2.2,2.3,3.1c0.3,0.3,0.5,0.7,0.4,1.1
	c-0.2,0.8-0.4,1.6-0.8,2.4c-1.5,3.2-1.4,2.7-0.6,5.9c0.9,3.5,1.9,7,2.8,10.4c0,0.1,0.1,0.1,0.1,0.2C14,49.8,11.4,49.8,8.9,49.8z
	 M7.5,27.5c-0.2,0-0.4,0-0.5,0.1C5.4,28,4.9,29.7,5.9,31c0.3,0.4,0.9,0.7,1.3,1c0.6,0.4,1.3,0.8,2,1.1c0.1,0.1,0.4,0,0.4-0.1
	c0.5-0.5,0.9-1.1,1.3-1.7c0.3-0.5,0.7-1,0.9-1.5c0.3-0.8,0.1-1.6-0.6-2.3c-0.6-0.6-1.4-0.7-2.1-0.4C8.6,27.5,8.1,27.8,7.5,27.5z"/>
<path d="M29.6,49.8c-0.1-1.3-0.3-2.6-0.4-4c0-0.2,0.1-0.4,0.1-0.6c0.7-2.6,1.4-5.2,2.1-7.8c0.2-0.8,0.1-1.6-0.2-2.4
	c-0.4-0.7-0.8-1.5-1.1-2.2c-0.3-0.6-0.4-1.3-0.6-2c0-0.2,0.1-0.4,0.1-0.5c0-0.1,0.1-0.2,0.2-0.3c1.2-1.4,2.3-3,2.7-4.8
	c0.6,0.4,0.7,0.4,0.9-0.3c0.6-3,1.2-6.1,1.8-9.1c0.1-0.7,0.6-1.1,1.2-1.1c0.7,0.1,1.1,0.6,1,1.4c-0.3,1.7-0.6,3.3-0.9,5
	c-0.2,1.2-0.5,2.4-0.7,3.7c0,0.3-0.1,0.6,0.3,0.6c0.4,0.1,0.4-0.2,0.5-0.5c0.6-3.2,1.2-6.5,1.9-9.7c0.1-0.5,0.2-0.9,0.7-1.1
	c0.3-0.1,0.8,0,1,0.1c0.4,0.2,0.5,0.7,0.4,1.2c-0.3,1.3-0.5,2.7-0.8,4c-0.4,1.9-0.7,3.8-1.1,5.8c0,0.1-0.1,0.2,0,0.3
	c0.1,0.2,0.2,0.3,0.3,0.4c0.2-0.1,0.4-0.2,0.4-0.3c0.2-0.8,0.3-1.6,0.5-2.4c0.4-2.1,0.8-4.2,1.2-6.2c0.1-0.6,0.5-1,0.9-1.1
	c0.8-0.1,1.4,0.5,1.2,1.4c-0.3,1.8-0.7,3.7-1.1,5.5c-0.4,1.9-0.7,3.8-1.1,5.7c0,0.1-0.1,0.3,0,0.4c0.1,0.1,0.3,0.3,0.3,0.3
	c0.1-0.1,0.3-0.2,0.4-0.4c0.2-0.7,0.3-1.5,0.4-2.2c0.1-0.4,0.1-0.9,0.3-1.3c0.2-0.7,0.7-1,1.3-0.9c0.6,0.1,1,0.7,0.8,1.4
	c-0.4,2-0.8,4-1.2,6.1c-0.5,2.5-2.1,3.9-4.2,4.9c-1.9,0.8-1.6,0.6-2,2.6c-0.5,3.4-1,6.8-1.4,10.2c0,0.1,0,0.3,0,0.4
	C33.7,49.8,31.6,49.8,29.6,49.8z M34.7,26.9c-1.1,0.1-1.9,0.9-2,1.9c-0.2,1.1,0.4,1.9,1,2.6c0.4,0.5,0.8,1.1,1.3,1.6
	c0.1,0.1,0.4,0.2,0.5,0.1c0.6-0.3,1.2-0.7,1.8-1c0.5-0.3,1.1-0.6,1.5-1.1c0.7-0.7,0.7-1.8,0.2-2.6c-0.5-0.8-1.4-1-2.4-0.8
	c-0.1,0-0.3,0-0.5-0.1C35.6,27.4,35.1,27.1,34.7,26.9z"/>
</svg>
