<?xml version="1.0" encoding="utf-8"?>
<!-- Generator: Adobe Illustrator 18.0.0, SVG Export Plug-In . SVG Version: 6.00 Build 0)  -->
<!DOCTYPE svg PUBLIC "-//W3C//DTD SVG 1.1//EN" "http://www.w3.org/Graphics/SVG/1.1/DTD/svg11.dtd">
<svg version="1.1" id="Capa_1" xmlns="http://www.w3.org/2000/svg" xmlns:xlink="http://www.w3.org/1999/xlink" x="0px" y="0px"
	 viewBox="0 0 34.9 52.5" enable-background="new 0 0 34.9 52.5" xml:space="preserve">
<path d="M28.1,4.3l6.2,23.1c0,0.2,0,0.3,0,0.5c0.1,1,0.2,2.1,0.2,3.1c0,1.9-0.5,3.7-1,5.5C33,38.7,33,40.8,33.6,43
	c0.4,1.5,0.8,3,1.2,4.5c0.2,0.6,0.1,1.1-0.4,1.6l-13,3.5c-0.7-0.1-0.9-0.6-1.1-1.2c-0.4-1.7-0.8-3.3-1.3-5c-0.1-0.6-0.4-1.1-0.6-1.6
	c-1-2.1-2.7-3.6-4.5-5.1c-1.2-1-2.5-1.9-3.6-3C7.6,34.1,4.8,31.5,2,29c-0.6-0.5-1.1-1.1-1.6-1.7L0,25.9c0.1-0.8,0.3-1.5,0.9-2.1
	c1.1-1,2.8-1.1,4.2,0c1.4,1.1,2.8,2.2,4.2,3.3c0.8,0.6,1.4,1.3,1.7,2.2c0.6,1.7,1.7,2.9,3.1,4c2.3,1.7,4.6,3.4,6.8,5.2
	c0.2,0.1,0.3,0.3,0.5,0.4c0.5,0.3,1.1,0.2,1.4-0.2c0.3-0.4,0.3-1-0.1-1.5c-0.1-0.1-0.3-0.2-0.4-0.3c-1-0.8-2.1-1.6-3.1-2.4
	c-0.1-0.1-0.2-0.4-0.2-0.6c0.2,0,0.5-0.1,0.6,0c0.5,0.3,0.9,0.6,1.3,1c1.3,1,2.6,2,3.9,2.9c0.5,0.4,1,0.4,1.4,0
	c0.4-0.3,0.5-0.9,0.2-1.3c-0.1-0.2-0.3-0.4-0.5-0.5c-1.4-1.1-2.8-2.1-4.2-3.2c-0.1-0.1-0.3-0.2-0.4-0.3c-0.1-0.1-0.1-0.3,0-0.4
	c0.1-0.1,0.3-0.1,0.4-0.1c0.1,0,0.2,0.2,0.4,0.2c1.6,1.2,3.2,2.5,4.9,3.7c0.2,0.2,0.6,0.3,0.9,0.3c0.5,0,0.8-0.3,0.9-0.7
	c0.2-0.5,0-0.9-0.4-1.2c-1.6-1.2-3.3-2.5-4.9-3.7c-0.1-0.1-0.3-0.2-0.4-0.3c-0.1-0.1,0-0.3,0-0.4c0.1,0,0.3,0,0.4,0
	c0.1,0,0.2,0.1,0.3,0.2c1.3,1,2.6,2,3.9,2.9c0.4,0.3,0.8,0.4,1.2,0.1c0.4-0.2,0.6-0.6,0.5-1c-0.1-0.3-0.3-0.7-0.6-0.9
	c-2-1.6-4-3.1-6.1-4.6c-0.2-0.1-0.3-0.3-0.5-0.5c0.3,0,0.5-0.1,0.7-0.1c0.5,0,1,0,1.6,0c0.9,0,1.5-0.5,1.5-1.2
	c0-0.7-0.5-1.3-1.4-1.3c-1.7-0.2-3.4-0.4-5.1-0.4c-1.3-0.1-2.6,0-3.8,0.1c-1.1,0.1-2,0-2.8-0.7C11,21.2,9.3,20,7.8,18.7
	c-0.4-0.3-0.7-0.8-0.9-1.2C6,14.2,5.1,11,4.3,7.8C3.9,6.5,4.8,5.2,6,4.9c1.4-0.3,2.6,0.5,3,2c1,3.7,2,7.4,3,11.1
	c0.1,0.2,0.1,0.4,0.2,0.6c0.2,0.4,0.5,0.5,0.9,0.2c0.4-0.3,0.3-0.7,0.2-1.1c-1-3.7-2-7.5-3-11.2C10,5.5,9.7,4.4,9.4,3.3
	C9.2,2.4,9.3,1.5,10,0.8c1.3-1.4,3.6-0.7,4.1,1.2c1.3,4.8,2.6,9.5,3.8,14.3c0.2,0.8,0.6,1.1,1.1,1c0.5-0.1,0.7-0.6,0.5-1.4
	c-1.1-4.1-2.2-8.3-3.3-12.4C16.1,3.2,16,2.9,16,2.6c-0.1-1,0.5-2.1,1.5-2.4c1.4-0.6,2.9,0.2,3.3,1.7c1.3,4.7,2.5,9.5,3.8,14.2
	c0,0.2,0.1,0.3,0.1,0.5c0.2,0.4,0.5,0.6,0.9,0.5c0.4-0.1,0.6-0.4,0.6-0.9c0-0.2-0.1-0.4-0.1-0.6c-0.8-3.1-1.6-6.1-2.5-9.2
	c-0.1-0.3-0.1-0.5-0.2-0.8c-0.2-1.4,1-2.7,2.4-2.7C26.9,3,27.5,3.5,28.1,4.3z"/>
</svg>
