<?xml version="1.0" encoding="utf-8"?>
<!-- Generator: Adobe Illustrator 18.0.0, SVG Export Plug-In . SVG Version: 6.00 Build 0)  -->
<!DOCTYPE svg PUBLIC "-//W3C//DTD SVG 1.1//EN" "http://www.w3.org/Graphics/SVG/1.1/DTD/svg11.dtd">
<svg version="1.1" id="Capa_1" xmlns="http://www.w3.org/2000/svg" xmlns:xlink="http://www.w3.org/1999/xlink"
	 viewBox="0 0 48.2 48.2" enable-background="new 0 0 48.2 48.2" xml:space="preserve">
<g>
	<path d="M48.2,24.1c0,13.3-10.8,24.1-24.1,24.1C10.8,48.2,0,37.4,0,24.1C0,10.8,10.8,0,24.1,0
		C37.4,0,48.2,10.8,48.2,24.1"/>
	<path fill="#FFFFFF" d="M22.5,33.9c-2.7-2.7-4.8-5.6-6.3-8.4c-3.9,1.4-6.2,3.4-6.2,5.5c0,3.9,7.8,7.2,17.1,7.2c0.6,0,1.1,0,1.7,0
		c-1.1-0.3-2.2-0.8-3.1-1.5C24.5,35.8,23.5,34.9,22.5,33.9"/>
	<path fill="#FFFFFF" d="M38.3,27c0-9.3-3.3-17.1-7.2-17.1c-2.1,0-4.2,2.3-5.5,6.2c2.8,1.5,5.7,3.7,8.4,6.3c1,1,1.9,2,2.7,3
		c0.8,0.9,1.3,2,1.6,3.2C38.3,28.2,38.3,27.6,38.3,27"/>
	<path fill="#FFFFFF" d="M16.6,24.4c2-0.6,4.2-1.1,6.5-1.3c0.2-2.3,0.7-4.6,1.3-6.6c-2.1-1-3.9-1.5-5.5-1.5c-1.2,0-2.2,0.3-2.9,1
		C14.6,17.6,14.8,20.7,16.6,24.4"/>
	<path fill="#FFFFFF" d="M31.1,24.1c-2.4-0.2-4.8-0.3-7.1-0.1c-0.1,1-0.1,2-0.1,3c0,1.3,0.1,2.7,0.2,4c0.4,3.6,3.4,6.3,7,6.3
		c0.8,0,1.7-0.1,2.4-0.4c0.7-0.3,1.4-0.8,2-1.4c0.6-0.6,1.1-1.3,1.4-2c0.3-0.8,0.4-1.6,0.4-2.4C37.4,27.4,34.7,24.4,31.1,24.1"/>
	<path fill="#FFFFFF" d="M23.2,31.2C23,29.8,23,28.4,23,27c0-1,0-2,0.1-3c-0.4,0-0.9,0.1-1.3,0.1c-0.2,0-0.3,0.1-0.5,0.1
		c-0.4,0.1-0.9,0.1-1.3,0.2c-0.2,0-0.4,0.1-0.5,0.1c-0.4,0.1-0.8,0.2-1.2,0.3c-0.2,0-0.4,0.1-0.5,0.1c-0.3,0.1-0.5,0.2-0.8,0.2
		c1.4,2.7,3.5,5.5,6.1,8c0.4,0.4,0.8,0.8,1.2,1.1C23.7,33.5,23.3,32.4,23.2,31.2"/>
	<path fill="#FFFFFF" d="M31.1,23.2L31.1,23.2c1.3,0.1,2.3,0.5,3.3,1.1c-0.4-0.4-0.7-0.8-1.1-1.2c-2.6-2.6-5.3-4.7-8-6.1
		c-0.1,0.3-0.2,0.5-0.2,0.8c0,0.2-0.1,0.3-0.1,0.5c-0.1,0.4-0.2,0.8-0.3,1.1c0,0.2-0.1,0.4-0.1,0.6c-0.1,0.4-0.1,0.8-0.2,1.2
		c0,0.2-0.1,0.4-0.1,0.6c-0.1,0.4-0.1,0.9-0.1,1.3C26.4,22.9,28.8,23,31.1,23.2"/>
</g>
</svg>
