<?xml version="1.0" encoding="utf-8"?>
<!-- Generator: Adobe Illustrator 18.0.0, SVG Export Plug-In . SVG Version: 6.00 Build 0)  -->
<!DOCTYPE svg PUBLIC "-//W3C//DTD SVG 1.1//EN" "http://www.w3.org/Graphics/SVG/1.1/DTD/svg11.dtd">
<svg version="1.1" id="Capa_1" xmlns="http://www.w3.org/2000/svg" xmlns:xlink="http://www.w3.org/1999/xlink"
	 viewBox="0 0 33.5 41.4" enable-background="new 0 0 33.5 41.4" xml:space="preserve">
<path fill-rule="evenodd" clip-rule="evenodd" d="M23.9,0.3c0.8,0.9,1.9,1.6,2.4,2.7c0.8,1.7,0.3,3.3-1,4.5
	c-0.4,0.4-0.7,0.7-1.4,1.3c2.7,0.3,4.9,0.6,7.2,0.9c2.3,0.3,2.7,0.8,2.4,3c-0.3,2.2-0.5,4.4-0.9,6.6c-0.1,0.7-0.6,1.6-1.1,1.8
	c-0.6,0.2-1.5-0.2-2.2-0.5c-0.5-0.2-0.8-0.8-1.3-1.2c-1.1-1-2.5-1-3.7-0.1c-1.1,0.9-1.4,2.7-0.6,3.9c0.8,1.3,2.3,1.6,3.7,0.9
	c0.8-0.4,1.5-0.9,2.3-1.1c1.4-0.4,2.3,0.4,2.1,1.8c-0.3,2.6-0.6,5.2-1,7.9c-0.2,1.4-1.1,1.7-2.3,1.6c-2-0.2-4-0.5-5.9-0.7
	c-0.5-0.1-1-0.1-1.8-0.1c0.3,0.5,0.4,0.8,0.6,1.1c1.9,2.9,0.9,5.7-2.3,6.8c-0.2,0.1-0.4,0.2-0.6,0.3c-0.7-0.1-1.5-0.2-2.2-0.3
	c-0.4-0.3-0.8-0.6-1.2-1c-1.9-1.7-1.9-4.2-0.2-6c0.4-0.4,0.8-0.8,1.5-1.5c-2.5-0.3-4.6-0.6-6.7-0.8c-3.1-0.4-3.3-0.7-2.9-3.7
	c0.3-2.1,0.5-4.2,0.7-5.9c-1.6,0.2-3.2,0.7-4.7,0.6c-0.8-0.1-1.8-1-2.3-1.8c-1.3-1.7-0.8-4.3,0.8-5.7c1.9-1.6,3.8-1.3,6.9,1.3
	C8.7,14.4,9,12.2,9.3,10c0.3-2.7,0.7-3,3.4-2.6C14.9,7.7,17.1,8,19,8.2c-0.3-1.7-1-3.3-0.9-4.9C18.3,1.5,20,0.6,21.7,0
	C22.4,0.1,23.2,0.2,23.9,0.3z M8.2,30c2.6,0.3,5.1,0.6,7.4,1c0.8,0.1,2,0.6,2.2,1.2c0.2,0.6-0.7,1.5-1.1,2.3
	c-0.5,0.8-1.2,1.6-1.4,2.4c-0.2,1.3,0.6,2.2,1.8,2.7c1.3,0.5,2.4,0.2,3.3-0.9c0.9-1.1,0.8-2.2,0.1-3.4c-0.5-0.9-0.6-1.9-0.9-2.9
	c1-0.2,2-0.4,3-0.5c0.3,0,0.5,0.1,0.8,0.1c2,0.3,4,0.5,6,0.8c0.4-3,0.7-5.7,1.1-8.7c-0.8,0.4-1.3,0.8-1.9,0.9
	c-1.1,0.3-2.3,0.9-3.3,0.8c-1.9-0.2-3.2-1.9-3.4-3.8c-0.2-1.8,0.9-3.7,2.6-4.5c1.7-0.7,3.5-0.3,4.8,1.1c0.5,0.5,1,0.9,1.7,1.5
	c0.4-3.1,0.7-5.9,1.1-8.7c-2.3-0.3-4.5-0.5-6.6-0.9c-1-0.2-2-0.8-3-1.2c0.6-0.9,1-1.9,1.7-2.7c1.2-1.3,1.4-2.6,0.3-3.9
	c-0.9-1.2-2.7-1.4-3.9-0.6C19.3,3,19,4.5,19.8,5.9c0.2,0.4,0.5,0.8,0.8,1.2c0.8,1.6,0.2,2.7-1.6,2.6c-1.7-0.1-3.3-0.4-5-0.6
	c-1-0.1-2-0.3-3.1-0.4c-0.3,2.4-0.5,4.6-0.9,6.8c-0.2,1-0.7,1.9-1,2.9c-0.8-0.5-1.8-1-2.5-1.6c-1.5-1.4-3.6-1.2-4.6,0.6
	c-0.7,1.3-0.4,2.5,0.6,3.5c1.1,1.1,2.3,1,4-0.1c0.7-0.4,1.5-0.5,2.3-0.7c0.2,0.8,0.5,1.5,0.4,2.2C8.9,24.9,8.5,27.3,8.2,30z"/>
</svg>
