<?xml version="1.0" encoding="utf-8"?>
<!-- Generator: Adobe Illustrator 16.0.0, SVG Export Plug-In . SVG Version: 6.00 Build 0)  -->
<!DOCTYPE svg PUBLIC "-//W3C//DTD SVG 1.1//EN" "http://www.w3.org/Graphics/SVG/1.1/DTD/svg11.dtd">
<svg version="1.1" id="Capa_1" xmlns="http://www.w3.org/2000/svg" xmlns:xlink="http://www.w3.org/1999/xlink" x="0px" y="0px"
	 width="612px" height="704.575px" viewBox="0 -6 612 704.575" enable-background="new 0 -6 612 704.575" xml:space="preserve">
<g>
	<path d="M306.801,136C193.875,136,102,227.875,102,340.801c0,51.344,19.031,98.289,50.355,134.273
		c0.102,0.117,0.184,0.237,0.297,0.34c37.571,42.969,92.723,70.188,154.149,70.188c59.492,0,115.81-25.745,154.5-70.637
		c0.219-0.254,0.293-0.559,0.474-0.832c0.258-0.41,0.53-0.801,0.707-1.266c0.172-0.461,0.219-0.935,0.288-1.41
		c0.048-0.328,0.191-0.617,0.191-0.949c0-0.082-0.051-0.156-0.055-0.238c-0.017-0.5-0.164-0.965-0.285-1.448
		c-0.105-0.384-0.152-0.777-0.316-1.142c-0.164-0.354-0.438-0.651-0.664-0.979c-0.284-0.41-0.539-0.828-0.897-1.164
		c-0.063-0.06-0.09-0.142-0.156-0.195c-0.254-0.219-0.563-0.293-0.832-0.473c-0.41-0.267-0.801-0.531-1.266-0.707
		c-0.457-0.172-0.922-0.215-1.398-0.281c-0.328-0.047-0.621-0.199-0.957-0.199h-70.246l-26.762-47.647l40.32-68.402h53.711
		l34.16,55.813c-5.195,14.974-12.146,29.341-21.005,42.73c-2.073,3.137-1.215,7.379,1.931,9.453
		c3.141,2.082,7.383,1.223,9.457-1.926c22.18-33.512,33.901-72.555,33.901-112.898C511.602,227.875,419.727,136,306.801,136
		L306.801,136z M440.391,204.266h-54.414l-25.069-46.762C391.203,166.469,418.375,182.73,440.391,204.266L440.391,204.266z
		 M306.801,149.652c12.41,0,24.527,1.239,36.289,3.504l31.008,57.855l-27.02,47.867h-80.516l-27.066-47.875l30.953-57.836
		C282.223,150.891,294.367,149.652,306.801,149.652L306.801,149.652z M252.629,157.52l-25.012,46.746h-54.414
		C195.203,182.742,222.355,166.48,252.629,157.52L252.629,157.52z M160.531,217.922h67.188l27.035,47.812l-40.586,68.239h-53.746
		l-34.254-55.575C133.895,256.082,145.629,235.637,160.531,217.922L160.531,217.922z M115.652,340.801
		c0-15.414,1.887-30.399,5.348-44.77l27.586,44.77l-27.613,44.672C117.531,371.133,115.652,356.188,115.652,340.801L115.652,340.801
		z M160.531,463.68c-14.929-17.733-26.672-38.223-34.398-60.578l34.281-55.477h53.754l40.613,68.301L227.91,463.68H160.531z
		 M173.203,477.332h54.375l24.426,46.574C221.984,514.906,195.047,498.723,173.203,477.332L173.203,477.332z M385.914,477.332
		h54.387c-22.621,22.285-50.313,38.379-80.512,47.094L385.914,477.332z M374.07,470.535l-32.242,58.121
		c-11.457,2.137-23.172,3.289-35.027,3.289c-12.688,0-25.071-1.271-37.071-3.633l-30.16-57.509l27.063-48.086h80.59L374.07,470.535z
		 M347.379,409.066H266.59l-40.598-68.266l40.598-68.266h80.551l40.474,68.277L347.379,409.066z M399.43,333.973l-40.496-68.313
		l26.945-47.738h67.184c14.832,17.633,26.521,37.969,34.255,60.148l-34.16,55.903H399.43L399.43,333.973z M464.988,340.801
		l27.539-45.063c3.508,14.457,5.418,29.539,5.418,45.063c0,15.296-1.898,30.363-5.427,44.988L464.988,340.801z"/>
</g>
</svg>
