<?xml version="1.0" encoding="utf-8"?>
<!-- Generator: Adobe Illustrator 16.0.0, SVG Export Plug-In . SVG Version: 6.00 Build 0)  -->
<!DOCTYPE svg PUBLIC "-//W3C//DTD SVG 1.1//EN" "http://www.w3.org/Graphics/SVG/1.1/DTD/svg11.dtd">
<svg version="1.1" id="Capa_1" xmlns="http://www.w3.org/2000/svg" xmlns:xlink="http://www.w3.org/1999/xlink" x="0px" y="0px"
	 width="612px" height="704.575px" viewBox="0 -6 612 704.575" enable-background="new 0 -6 612 704.575" xml:space="preserve">
<g>
	<g>
		<defs>
			<rect id="SVGID_1_" x="144" y="176" width="324.96" height="345"/>
		</defs>
		<clipPath id="SVGID_2_">
			<use xlink:href="#SVGID_1_"  overflow="visible"/>
		</clipPath>
		<path clip-path="url(#SVGID_2_)" d="M278.02,295.903h-85.708c-3.976,0-7.199-3.223-7.199-7.2c0-3.976,3.223-7.199,7.199-7.199
			h85.708c3.976,0,7.199,3.223,7.199,7.199C285.219,292.68,281.996,295.903,278.02,295.903L278.02,295.903z M270.414,469.684
			c0,3.977-3.223,7.199-7.203,7.199h-27.109v36.258c0,2.801-1.625,5.352-4.172,6.531c-0.965,0.449-2,0.668-3.028,0.668
			c-1.672,0-3.328-0.582-4.652-1.707l-13.645-11.555l-13.64,11.555c-2.137,1.813-5.137,2.219-7.68,1.039
			c-2.547-1.18-4.172-3.73-4.172-6.535v-36.254h-33.914c-3.976,0-7.199-3.223-7.199-7.199V197.969
			c0-12.113,8.609-21.969,19.195-21.969h199.684c3.977,0,7.199,3.223,7.199,7.203c0,3.977-3.223,7.2-7.199,7.2H163.195
			c-2.261,0-4.797,3.234-4.797,7.566v7.574h204.481c3.977,0,7.199,3.223,7.199,7.199v70.082c0,3.977-3.223,7.2-7.199,7.2
			s-7.199-3.223-7.199-7.2v-62.882H158.398v242.542h104.813C267.188,462.484,270.414,465.707,270.414,469.684L270.414,469.684z
			 M221.703,476.883h-22.191v20.723l6.441-5.457c1.344-1.137,3-1.702,4.652-1.702c1.657,0,3.313,0.565,4.653,1.702l6.445,5.457
			V476.883z M468.449,408.387c0,54.566-44.391,98.957-98.957,98.957c-54.563,0-98.953-44.395-98.953-98.957
			s44.391-98.957,98.953-98.957c10.098,0,25.352,0,33.875,12.187c3.613,5.168,9.953,19.25-9.164,38.33
			c-6.203,6.194-6.215,16.28-0.023,22.487c6.199,6.195,16.289,6.211,22.488,0.02c12.691-12.664,23.109-13.93,29.609-12.762
			c7.801,1.402,14.313,7,18.34,15.766C467.984,392.789,468.449,400.809,468.449,408.387L468.449,408.387z M454.047,408.387
			c0-6.867-0.426-12.371-2.516-16.918c-1.418-3.086-3.918-6.906-7.801-7.605c-4.418-0.789-10.418,2.328-16.887,8.785
			c-11.816,11.793-31.039,11.773-42.852-0.038c-11.805-11.832-11.785-31.056,0.039-42.856c4.715-4.703,11.965-13.547,7.535-19.883
			c-3.914-5.593-11.961-6.039-22.074-6.039c-46.621,0-84.554,37.934-84.554,84.555c0,46.625,37.933,84.56,84.554,84.56
			C416.117,492.941,454.047,455.012,454.047,408.387L454.047,408.387z M395.285,421.625L395.285,421.625
			C395.285,421.625,395.285,421.621,395.285,421.625L395.285,421.625z M192.312,309.735c-3.976,0-7.199,3.222-7.199,7.199
			c0,3.976,3.223,7.203,7.199,7.203h29.024c3.976,0,7.199-3.227,7.199-7.203c0-3.977-3.223-7.199-7.199-7.199H192.312z
			 M397.02,188.531c-2.27-2.054-2.988-5.324-1.793-8.144c1.199-2.82,4.039-4.57,7.102-4.371
			c50.262,3.324,55.836,32.637,55.074,57.805c-0.355,11.695-7.977,21.316-18.395,24.433v85.551c0,3.976-3.223,7.199-7.199,7.199
			s-7.199-3.223-7.199-7.199v-85.481c-10.746-3.082-18.629-13-18.629-24.722c0-3.309,0.023-6.375,0.051-9.227
			C406.215,202.61,405.895,196.586,397.02,188.531L397.02,188.531z M417.402,192.836c3.223,8.465,3.141,18.203,3.027,31.66
			c-0.023,2.817-0.051,5.84-0.051,9.106c0,6.238,5.078,11.312,11.316,11.312c6.148,0,11.117-5.062,11.316-11.527
			C443.527,216.25,441.684,199.301,417.402,192.836L417.402,192.836z M339.941,430.75c-3.871,3.867-9.016,5.992-14.484,5.992h-0.02
			c-5.477-0.004-10.626-2.141-14.496-6.02c-7.984-8-7.973-21.012,0.031-28.996c8-7.988,21.012-7.977,29,0.023
			C347.957,409.754,347.945,422.762,339.941,430.75L339.941,430.75z M329.777,411.926c-1.188-1.195-2.754-1.789-4.32-1.789
			c-1.563,0-3.125,0.594-4.313,1.781c-2.383,2.379-2.387,6.25-0.008,8.633c1.152,1.156,2.684,1.793,4.313,1.793h0.008
			c1.629,0,3.16-0.633,4.313-1.785C332.152,418.18,332.156,414.309,329.777,411.926L329.777,411.926z M376.07,437.922
			c7.988,8.004,7.977,21.016-0.027,29c-3.996,3.988-9.242,5.984-14.484,5.984c-5.258,0-10.516-2.003-14.516-6.012
			c-3.867-3.875-5.996-9.027-5.992-14.504c0.008-5.477,2.145-10.625,6.02-14.496C355.074,429.906,368.086,429.918,376.07,437.922
			L376.07,437.922z M365.879,448.094c-2.379-2.383-6.25-2.383-8.633-0.008c-1.156,1.152-1.793,2.688-1.793,4.317
			c0,1.632,0.633,3.163,1.785,4.319c2.379,2.383,6.25,2.387,8.633,0.008S368.258,450.477,365.879,448.094L365.879,448.094z
			 M192.312,267.676h68.223c3.977,0,7.199-3.223,7.199-7.199c0-3.981-3.222-7.203-7.199-7.203h-68.223
			c-3.976,0-7.199,3.222-7.199,7.203C185.113,264.453,188.336,267.676,192.312,267.676L192.312,267.676z M325.617,380.852
			c-3.871-3.879-6-9.03-5.992-14.508c0.004-5.477,2.141-10.625,6.02-14.492c8-7.989,21.012-7.977,29,0.027
			c3.867,3.875,5.996,9.027,5.992,14.504c-0.004,5.478-2.145,10.625-6.02,14.496c-3.871,3.863-9.016,5.992-14.484,5.992h-0.023
			C334.633,386.863,329.484,384.727,325.617,380.852L325.617,380.852z M334.023,366.36c0,1.628,0.633,3.163,1.785,4.315
			c1.152,1.156,2.684,1.793,4.316,1.793h0.008c1.629,0,3.16-0.633,4.313-1.781c1.152-1.152,1.789-2.684,1.793-4.316
			c0-1.633-0.633-3.164-1.785-4.32c-1.191-1.19-2.758-1.789-4.32-1.789s-3.125,0.594-4.316,1.781
			C334.664,363.196,334.027,364.727,334.023,366.36L334.023,366.36z M424.285,421.653c7.988,8,7.973,21.011-0.027,28.995
			c-3.871,3.867-9.016,5.992-14.488,5.992h-0.016c-5.48-0.004-10.625-2.141-14.496-6.02c-7.988-8.004-7.973-21.011,0.027-29
			c3.871-3.863,9.016-5.992,14.484-5.992h0.02C415.266,415.637,420.414,417.773,424.285,421.653L424.285,421.653z M415.875,436.141
			c0.004-1.629-0.633-3.164-1.781-4.316c-1.152-1.156-2.688-1.793-4.32-1.793h-0.004c-1.629,0-3.16,0.633-4.313,1.785
			c-2.383,2.375-2.387,6.25-0.008,8.633c1.152,1.156,2.684,1.793,4.316,1.793h0.004c1.629,0,3.16-0.632,4.313-1.785
			C415.238,439.305,415.875,437.773,415.875,436.141L415.875,436.141z M415.875,436.141"/>
	</g>
</g>
</svg>
