<?xml version="1.0" encoding="utf-8"?>
<!-- Generator: Adobe Illustrator 17.0.0, SVG Export Plug-In . SVG Version: 6.00 Build 0)  -->
<!DOCTYPE svg PUBLIC "-//W3C//DTD SVG 1.1//EN" "http://www.w3.org/Graphics/SVG/1.1/DTD/svg11.dtd">
<svg version="1.1" id="Capa_1" xmlns="http://www.w3.org/2000/svg" xmlns:xlink="http://www.w3.org/1999/xlink" x="0px" y="0px"
	  viewBox="0 0 512 512" enable-background="new 0 0 512 512" xml:space="preserve">
<path d="M457.928,191.012c0,46.73,0,93.46,0,140.189c-2.634,4.142-6.573,5.007-11.204,5
	c-50.848-0.078-101.697-0.049-152.545-0.048c-1.92,0-3.84,0-6.006,0c0,2.721,0,4.567,0,6.412c0,46.521-0.069,93.042,0.089,139.562
	c0.019,5.697-1.545,9.899-6.731,12.474c-15.783,0-31.566,0-47.349,0c-5.195-2.584-6.749-6.801-6.73-12.503
	c0.157-46.717,0.089-93.435,0.089-140.153c0-1.783,0-3.565,0-5.793c-2.675,0-4.656,0-6.637,0c-50.74,0-101.48,0.006-152.22-0.008
	c-8.599-0.002-11.82-3.196-11.821-11.706c-0.011-65.9-0.011-131.8,0-197.7c0.001-8.452,3.367-11.799,11.8-11.819
	c8-0.019,16.001-0.004,24.463-0.004c0-2.107,0-3.77,0-5.433c0-25.679,0.133-51.36-0.101-77.037
	c-0.053-5.811,1.504-10.203,6.538-13.189c21.044,0,42.088,0,63.132,0c5.107,2.641,6.879,6.774,6.7,12.523
	c-0.347,11.122-0.085,22.262-0.107,33.395c-0.016,8.161-3.373,11.544-11.532,11.563c-13.452,0.032-26.904,0.009-40.356,0.009
	c-1.643,0-3.286,0-4.844,0c0,13.071,0,25.486,0,38.169c2.396,0,4.389,0,6.381,0c82.258,0,164.519-0.355,246.774,0.154
	c39.798,0.246,68.365,19.533,85.412,55.435C454.19,176.961,455.7,184.157,457.928,191.012z M76.043,317.098
	c20.443,0,40.522,0,61.174,0c0-2.143,0-4.115,0-6.086c0-44.25-0.003-88.499,0.011-132.749c0.001-2.007-0.048-4.048,0.281-6.014
	c0.757-4.531,3.694-7.004,8.122-7.678c4.069-0.619,8.197,1.683,9.631,5.647c0.711,1.967,0.868,4.22,0.87,6.344
	c0.047,45.023,0.035,90.047,0.035,135.07c0,1.789,0,3.579,0,5.284c94.906,0,189.177,0,283.614,0c0.072-1.408,0.175-2.474,0.175-3.54
	c0.007-35.121,0.041-70.243-0.043-105.364c-0.01-4.313-0.294-8.692-1.069-12.928c-6.712-36.689-36.272-61.171-74.084-61.207
	c-82.465-0.077-164.931-0.026-247.396-0.011c-1.62,0-3.241,0.191-5.217,0.315c0,6.838,0.062,13.161-0.017,19.482
	c-0.084,6.696-3.775,10.952-9.367,11.001c-5.761,0.05-9.572-4.358-9.625-11.25c-0.048-6.325-0.01-12.651-0.01-19.266
	c-5.835,0-11.313,0-17.085,0C76.043,195.166,76.043,255.891,76.043,317.098z M269.015,475.503c0-46.638,0-92.774,0-138.99
	c-7.684,0-15.016,0-22.317,0c0,46.498,0,92.634,0,138.99C254.253,475.503,261.461,475.503,269.015,475.503z M150.133,57.454
	c0-6.473,0-12.67,0-18.96c-12.744,0-25.135,0-37.537,0c0,6.574,0,12.779,0,18.96C125.335,57.454,137.624,57.454,150.133,57.454z"/>
<path d="M360.642,304.31c-17.604,0-35.207,0.022-52.811-0.009c-8.274-0.015-13.196-3.464-13.331-9.208
	c-0.14-5.977,4.777-9.592,13.371-9.6c35.207-0.034,70.414-0.033,105.621,0c8.355,0.008,13.652,3.892,13.437,9.64
	c-0.209,5.581-5.403,9.158-13.477,9.17C395.849,304.328,378.246,304.31,360.642,304.31z"/>
</svg>
