<?xml version="1.0" encoding="utf-8"?>
<!-- Generator: Adobe Illustrator 16.0.0, SVG Export Plug-In . SVG Version: 6.00 Build 0)  -->
<!DOCTYPE svg PUBLIC "-//W3C//DTD SVG 1.1//EN" "http://www.w3.org/Graphics/SVG/1.1/DTD/svg11.dtd">
<svg version="1.1" id="Layer_1" xmlns="http://www.w3.org/2000/svg" xmlns:xlink="http://www.w3.org/1999/xlink" x="0px" y="0px"
	 width="69.21px" height="58.319px" viewBox="0 0 69.21 58.319" enable-background="new 0 0 69.21 58.319" xml:space="preserve">
<path fill-rule="evenodd" clip-rule="evenodd" fill="#41B2E0" d="M10.594,41.914c0.58-0.132,1.16,0.232,1.292,0.812
	c0.132,0.58-0.232,1.16-0.813,1.293l-6.786,1.545c-0.579,0.133-1.159-0.232-1.291-0.813l-0.007-0.027L0.027,31.721
	c-0.132-0.578,0.232-1.159,0.812-1.291l0.028-0.007l11.51-2.622c0.579-0.133,1.16,0.232,1.292,0.812l0.006,0.028l2.653,11.643
	c0.133,0.58-0.233,1.16-0.813,1.292c-0.58,0.132-1.157-0.232-1.29-0.813l-2.42-10.621l-9.436,2.15l2.49,10.928L10.594,41.914z"/>
<path fill-rule="evenodd" clip-rule="evenodd" fill="#41B2E0" d="M9.882,43.468c-0.277-0.526-0.075-1.18,0.451-1.455
	c0.525-0.276,1.178-0.075,1.452,0.452l7.152,13.541l3.571-0.814l-2.854-12.522c-0.132-0.58,0.232-1.159,0.813-1.292
	c0.579-0.132,1.159,0.232,1.292,0.813l3.087,13.549l0.006,0.026c0.131,0.58-0.234,1.158-0.813,1.29l-5.431,1.237
	c-0.463,0.106-0.959-0.108-1.192-0.55L9.882,43.468z"/>
<path fill-rule="evenodd" clip-rule="evenodd" fill="#41B2E0" d="M9.549,37.327c0.58-0.132,1.159,0.231,1.292,0.813
	c0.132,0.58-0.233,1.158-0.814,1.289l-2.713,0.619c-0.579,0.133-1.16-0.231-1.291-0.811c-0.133-0.581,0.233-1.159,0.813-1.291
	L9.549,37.327z"/>
<path fill-rule="evenodd" clip-rule="evenodd" fill="#41B2E0" d="M52.077,43.643c0.133,0.581-0.232,1.159-0.813,1.291
	c-0.579,0.133-1.156-0.23-1.29-0.813L41.394,6.46c-0.132-0.579,0.231-1.156,0.812-1.288c0.578-0.132,1.158,0.23,1.29,0.81
	L52.077,43.643z"/>
<path fill-rule="evenodd" clip-rule="evenodd" fill="#41B2E0" d="M17.667,26.98c-0.465,0.371-1.141,0.295-1.512-0.168
	c-0.369-0.465-0.295-1.144,0.17-1.513L47.74,0.237c0.466-0.368,1.144-0.293,1.513,0.172c0.369,0.463,0.294,1.142-0.168,1.511
	L17.667,26.98z"/>
<path fill-rule="evenodd" clip-rule="evenodd" fill="#41B2E0" d="M20.466,43.476c-0.579-0.131-0.94-0.708-0.808-1.287
	s0.71-0.94,1.288-0.809l39.174,8.978c0.576,0.133,0.938,0.711,0.807,1.29c-0.131,0.579-0.71,0.94-1.288,0.81L20.466,43.476z"/>
<path fill-rule="evenodd" clip-rule="evenodd" fill="#41B2E0" d="M19.229,38.047c-0.578-0.131-0.94-0.711-0.809-1.289
	c0.135-0.576,0.711-0.939,1.29-0.807l39.174,8.979c0.576,0.133,0.938,0.711,0.807,1.289c-0.132,0.579-0.711,0.939-1.289,0.809
	L19.229,38.047z"/>
<path fill-rule="evenodd" clip-rule="evenodd" fill="#41B2E0" d="M47.362,1.318c-0.133-0.58,0.229-1.159,0.81-1.291
	s1.159,0.232,1.292,0.813l10.23,44.899c0.132,0.58-0.232,1.16-0.813,1.292c-0.578,0.132-1.156-0.233-1.289-0.813L47.362,1.318z"/>
<path fill-rule="evenodd" clip-rule="evenodd" fill="#41B2E0" d="M63.564,28.758c-0.094,0.585-0.646,0.988-1.229,0.894
	c-0.585-0.091-0.987-0.644-0.894-1.229c0.102-0.634,0.142-1.274,0.118-1.908c-0.021-0.634-0.103-1.274-0.247-1.905
	c-0.283-1.245-0.803-2.437-1.535-3.493c-0.339-0.486-0.215-1.158,0.273-1.494c0.484-0.338,1.157-0.215,1.493,0.274
	c0.897,1.289,1.528,2.734,1.87,4.234c0.171,0.748,0.271,1.523,0.296,2.308C63.738,27.208,63.688,27.989,63.564,28.758"/>
<path fill-rule="evenodd" clip-rule="evenodd" fill="#41B2E0" d="M68.445,31.996c-0.172,0.567-0.774,0.888-1.342,0.716
	c-0.567-0.173-0.89-0.776-0.719-1.345c0.108-0.348,0.202-0.688,0.277-1.019c0.08-0.349,0.151-0.698,0.204-1.036
	c0.08-0.497,0.136-0.994,0.166-1.481l0.004-0.046c0.024-0.474,0.033-0.957,0.016-1.452c-0.018-0.507-0.056-1.002-0.117-1.48
	c-0.061-0.46-0.149-0.951-0.266-1.461c-0.222-0.972-0.534-1.919-0.93-2.819c-0.204-0.468-0.43-0.916-0.666-1.34
	c-0.235-0.421-0.499-0.843-0.791-1.26l-0.026-0.038c-0.181-0.259-0.385-0.531-0.606-0.809l-0.036-0.049
	c-0.2-0.248-0.422-0.501-0.655-0.754c-0.401-0.437-0.372-1.121,0.064-1.521c0.438-0.402,1.118-0.375,1.52,0.062
	c0.251,0.274,0.499,0.562,0.742,0.864l0.044,0.05c0.229,0.283,0.458,0.591,0.688,0.919l0.032,0.044
	c0.315,0.457,0.619,0.939,0.899,1.442h-0.002l0.003,0.004c0.282,0.507,0.541,1.017,0.761,1.521c0.457,1.04,0.813,2.115,1.061,3.203
	c0.118,0.521,0.217,1.08,0.294,1.663c0.072,0.57,0.119,1.136,0.138,1.685c0.019,0.538,0.009,1.091-0.025,1.656v0.048
	c-0.036,0.563-0.098,1.131-0.187,1.687c-0.064,0.397-0.146,0.795-0.233,1.18C68.667,31.232,68.56,31.621,68.445,31.996"/>
</svg>
