<?xml version="1.0" encoding="utf-8"?>
<!-- Generator: Adobe Illustrator 18.0.0, SVG Export Plug-In . SVG Version: 6.00 Build 0)  -->
<!DOCTYPE svg PUBLIC "-//W3C//DTD SVG 1.1//EN" "http://www.w3.org/Graphics/SVG/1.1/DTD/svg11.dtd">
<svg version="1.1" id="Capa_1" xmlns="http://www.w3.org/2000/svg" xmlns:xlink="http://www.w3.org/1999/xlink" x="0px" y="0px"
	 viewBox="0 0 61 39.2" enable-background="new 0 0 61 39.2" xml:space="preserve">
<g opacity="0.9">
	<g>
		<defs>
			<rect id="SVGID_1_" x="0" y="0" width="61" height="39.2"/>
		</defs>
		<clipPath id="SVGID_2_">
			<use xlink:href="#SVGID_1_"  overflow="visible"/>
		</clipPath>
		<path clip-path="url(#SVGID_2_)" fill-rule="evenodd" clip-rule="evenodd" d="M0,0.6C0.3,0.1,0.8,0,1.4,0
			c19.4,0,38.8,0,58.1,0c0.6,0,1.1,0.1,1.4,0.6v37.9c-0.3,0.5-0.7,0.7-1.3,0.7c-19.5,0-38.9,0-58.4,0c-0.6,0-1-0.2-1.3-0.7V0.6z
			 M59,2H2v35.3h57V2z"/>
		<path clip-path="url(#SVGID_2_)" fill-rule="evenodd" clip-rule="evenodd" d="M11.9,5.8c-0.3,1.4-0.8,2.6-1.7,3.7
			c-1.1,1.2-2.4,2-3.9,2.3C6,11.9,5.8,12,5.8,12.4c0,4.9,0,9.8,0,14.7c0,0.1,0,0.1,0,0.2C9.2,28,11.3,30,12,33.4H49
			c0.7-3.4,2.7-5.4,6.1-6.1v-0.5c0-4.8,0-9.5,0-14.3c0-0.4,0-0.6-0.5-0.7c-2.9-0.7-4.8-2.5-5.5-5.5c0-0.1,0-0.2-0.1-0.3
			c0-0.1,0-0.1-0.1-0.2c-0.8,0-1.7,0-2.5,0c-0.2,0-0.5,0-0.7-0.1c-0.5-0.1-0.7-0.4-0.7-0.9c0-0.5,0.2-0.9,0.7-0.9
			c1.5,0,2.9-0.1,4.4,0c0.6,0,0.7,0.7,0.7,1.2c0.1,1,0.4,2,1,2.8c1,1.3,2.3,1.9,3.9,2.1c1,0.1,1.2,0.4,1.2,1.3c0,5.5,0,11,0,16.6
			c0,0.9-0.3,1.2-1.2,1.3c-2.8,0.3-4.6,2.1-4.9,4.9c-0.1,1-0.4,1.3-1.4,1.3c-12.7,0-25.5,0-38.2,0c-1,0-1.3-0.3-1.4-1.3
			c-0.2-2.7-2.1-4.6-4.9-4.8c-1-0.1-1.3-0.4-1.3-1.3c0-5.5,0-11,0-16.5c0-1,0.2-1.3,1.2-1.3c2.8-0.2,4.9-2.5,4.9-5
			c0-0.9,0.4-1.2,1.3-1.2c10.2,0,20.4,0,30.6,0c0.2,0,0.4,0,0.6,0.1c0.4,0.1,0.7,0.5,0.6,0.9c-0.1,0.3-0.3,0.7-0.6,0.8
			c-0.2,0.2-0.6,0.1-0.9,0.1c-9.6,0-19.2,0-28.8,0H11.9z"/>
		<path clip-path="url(#SVGID_2_)" fill-rule="evenodd" clip-rule="evenodd" d="M30.5,31.5
			c-6.5,0-11.8-5.3-11.8-11.8c0-6.5,5.3-11.9,11.9-11.8c6.5,0,11.8,5.4,11.8,11.9C42.3,26.2,37,31.5,30.5,31.5 M30.5,9.7
			c-5.4,0-9.9,4.5-9.9,9.9c0,5.4,4.4,9.9,9.9,9.9c5.5,0,9.9-4.4,9.9-9.9C40.4,14.2,35.9,9.7,30.5,9.7"/>
		<path clip-path="url(#SVGID_2_)" fill-rule="evenodd" clip-rule="evenodd" d="M27.5,13.5c1.1,0,1.9,0.2,2.6,0.8
			c0.3,0.2,0.4,0.2,0.7,0c1.7-1.2,3.9-1,5.3,0.4c1.4,1.4,1.7,3.6,0.5,5.3c-1.8,2.5-3.6,4.8-5.4,7.2c-0.5,0.6-1.2,0.6-1.6,0
			c-1.9-2.4-3.7-4.8-5.5-7.3c-0.9-1.3-0.9-2.8-0.1-4.2C24.9,14.2,26.1,13.5,27.5,13.5 M30.5,25c0.3-0.4,0.5-0.7,0.8-1
			c1.2-1.6,2.5-3.2,3.7-4.9c0.9-1.2,0.7-2.5-0.4-3.3c-1-0.8-2.3-0.5-3.2,0.6c-0.6,0.8-1.2,0.8-1.9,0c-0.8-1.1-2.1-1.3-3.1-0.7
			c-1,0.7-1.4,2-0.6,3.1C27.4,20.9,28.9,22.9,30.5,25"/>
	</g>
</g>
</svg>
