<?xml version="1.0" encoding="utf-8"?>
<!-- Generator: Adobe Illustrator 17.0.0, SVG Export Plug-In . SVG Version: 6.00 Build 0)  -->
<!DOCTYPE svg PUBLIC "-//W3C//DTD SVG 1.1//EN" "http://www.w3.org/Graphics/SVG/1.1/DTD/svg11.dtd">
<svg version="1.1" id="Capa_1" xmlns="http://www.w3.org/2000/svg" xmlns:xlink="http://www.w3.org/1999/xlink" x="0px" y="0px"
		viewBox="0 0 512 512" enable-background="new 0 0 512 512" xml:space="preserve">
<g>
	<path d="M366.77,73.545c0,1.017,0,2.034,0,3.052c-2.132,5.6-7.229,4.03-11.636,4.421c0,1.387,0,2.489,0,3.592
		c0,15.357-0.161,30.716,0.045,46.071c0.206,15.38-4.191,29.111-13.042,41.696c-19.121,27.187-37.965,54.569-57.001,81.816
		c-1.321,1.891-1.353,3.117-0.015,5.018c19.428,27.594,38.757,55.257,58.135,82.886c7.951,11.336,11.897,23.906,11.882,37.745
		c-0.018,15.967-0.004,31.935-0.004,47.902c0,1.071,0,2.142,0,3.325c4.656,0.216,9.494-1.038,11.636,4.389c0,2.438,0,4.876,0,7.317
		c-73.847,0.002-147.694,0.002-221.541,0c0-2.44,0-4.878,0-7.317c2.133-5.599,7.23-4.036,11.636-4.411c0-1.405,0-2.506,0-3.608
		c0-15.662,0.058-31.325-0.017-46.987c-0.068-14.281,4.009-27.175,12.232-38.862c19.302-27.434,38.485-54.951,57.795-82.378
		c1.339-1.902,1.307-3.127-0.014-5.017c-19.269-27.58-38.408-55.251-57.675-82.832c-8.302-11.885-12.431-24.963-12.343-39.459
		c0.095-15.865,0.022-31.731,0.022-47.597c0-1.07,0-2.14,0-3.315c-4.653-0.237-9.504,1.056-11.636-4.393c0-1.017,0-2.034,0-3.052
		c1.491-3.285,4.069-4.322,7.609-4.318c68.774,0.063,137.548,0.063,206.322,0C362.702,69.223,365.278,70.261,366.77,73.545z
		 M168.515,430.957c58.573,0,116.607,0,174.97,0c0-1.266,0-2.358,0-3.449c0-15.459-0.102-30.919,0.032-46.376
		c0.107-12.315-3.402-23.33-10.508-33.404c-20.038-28.407-39.919-56.925-59.862-85.399c-3.525-5.033-3.531-6.149-0.077-11.118
		c20.072-28.879,40.103-57.787,60.237-86.623c6.863-9.829,10.253-20.622,10.196-32.593c-0.076-15.865-0.019-31.731-0.019-47.597
		c0-1.078,0-2.157,0-3.248c-58.534,0-116.639,0-174.97,0c0,1.337,0,2.441,0,3.545c0,15.561,0.101,31.122-0.032,46.682
		c-0.106,12.414,3.41,23.533,10.539,33.715c20.113,28.726,40.064,57.566,60.079,86.362c3.217,4.628,3.207,5.952-0.065,10.624
		c-20.176,28.807-40.322,57.635-60.543,86.411c-6.708,9.546-10.021,20.073-9.988,31.722c0.045,15.764,0.011,31.528,0.011,47.292
		C168.515,428.594,168.515,429.686,168.515,430.957z"/>
	<path d="M256.106,314.413c11.49,0,22.98,0.072,34.469-0.045c3.389-0.034,5.687,1.16,7.625,3.976
		c8.527,12.389,17.177,24.695,25.858,36.976c5.219,7.383,7.78,15.56,7.793,24.564c0.015,10.676,0.019,21.353-0.002,32.029
		c-0.011,5.516-2.056,7.534-7.58,7.56c-3.152,0.015-6.306,0.068-9.456-0.02c-3.722-0.103-6.22-2.421-6.299-5.679
		c-0.084-3.454,2.363-5.785,6.272-5.976c5.387-0.264,5.387-0.264,5.387-5.571c0-7.423-0.005-14.845,0-22.268
		c0.005-6.378-1.673-12.229-5.363-17.481c-8.061-11.476-16.06-22.995-24.216-34.403c-0.722-1.01-2.402-1.886-3.643-1.893
		c-20.64-0.116-41.282-0.116-61.922,0.001c-1.238,0.007-2.914,0.893-3.637,1.905c-8.155,11.409-16.153,22.929-24.215,34.404
		c-3.562,5.07-5.298,10.717-5.336,16.875c-0.053,8.541,0.069,17.084-0.071,25.622c-0.039,2.401,0.852,2.849,3.018,2.841
		c19.217-0.071,38.435-0.041,57.652-0.041c0.915,0,1.831-0.02,2.745,0.009c4.16,0.132,6.689,2.411,6.614,5.941
		c-0.072,3.394-2.6,5.71-6.568,5.717c-22.878,0.037-45.756,0.039-68.634-0.003c-3.834-0.007-6.37-2.221-6.38-5.921
		c-0.036-12.806-0.049-25.618,0.306-38.418c0.196-7.063,3.003-13.429,7.034-19.203c8.843-12.665,17.764-25.276,26.552-37.98
		c1.753-2.535,3.907-3.564,6.915-3.546C232.719,314.454,244.413,314.413,256.106,314.413z"/>
	<path d="M256.309,180.196c13.005,0,26.01,0.029,39.015-0.022c2.903-0.011,5.548,0.336,6.952,3.274
		c1.309,2.739,0.215,5.043-1.382,7.338c-13.103,18.84-26.154,37.717-39.232,56.574c-3.567,5.142-7.761,5.14-11.33-0.006
		c-13.078-18.858-26.127-37.735-39.23-56.576c-1.597-2.297-2.688-4.602-1.375-7.338c1.408-2.935,4.056-3.278,6.958-3.266
		C229.893,180.224,243.101,180.196,256.309,180.196z M285.74,192.118c-20.039,0-39.559,0-59.481,0
		c10.016,14.447,19.783,28.536,29.741,42.899C265.962,220.649,275.729,206.559,285.74,192.118z"/>
	<path d="M331.954,131.88c0.045,9.559-2.61,18.234-8.214,25.999c-1.724,2.389-3.347,4.849-5.057,7.248
		c-2.41,3.382-5.743,4.265-8.615,2.329c-3.007-2.026-3.349-5.459-0.876-9.091c1.544-2.267,3.061-4.557,4.705-6.75
		c4.51-6.015,6.483-12.789,6.285-20.256c-0.038-1.421-0.063-2.854,0.073-4.265c0.285-2.957,2.534-5.113,5.366-5.282
		c2.807-0.168,5.398,1.711,5.956,4.614C331.919,128.203,331.842,130.059,331.954,131.88z"/>
	<path d="M285.071,419.459c-1.923,0.002-3.852,0.102-5.767-0.02c-3.368-0.215-5.819-2.737-5.829-5.83
		c-0.01-3.146,2.37-5.634,5.823-5.752c3.942-0.134,7.896-0.143,11.837,0.008c3.38,0.129,5.509,2.412,5.586,5.59
		c0.079,3.26-2.141,5.725-5.58,5.975C289.128,419.577,287.095,419.457,285.071,419.459z"/>
	<path d="M332.027,101.478c-0.211,1.601-0.178,3.284-0.685,4.784c-0.918,2.717-3.08,4.061-5.91,3.79
		c-2.815-0.27-4.759-1.928-5.096-4.811c-0.27-2.307-0.219-4.671-0.103-6.999c0.158-3.165,2.399-5.41,5.358-5.618
		c2.992-0.211,5.666,1.984,6.132,5.183c0.174,1.192,0.028,2.431,0.028,3.649C331.844,101.463,331.935,101.471,332.027,101.478z"/>
</g>
</svg>
