<?xml version="1.0" encoding="utf-8"?>
<!-- Generator: Adobe Illustrator 17.0.0, SVG Export Plug-In . SVG Version: 6.00 Build 0)  -->
<!DOCTYPE svg PUBLIC "-//W3C//DTD SVG 1.1//EN" "http://www.w3.org/Graphics/SVG/1.1/DTD/svg11.dtd">
<svg version="1.1" id="Capa_1" xmlns="http://www.w3.org/2000/svg" xmlns:xlink="http://www.w3.org/1999/xlink" x="0px" y="0px"
	 width="78.444px" height="85px" viewBox="0 0 78.444 85" enable-background="new 0 0 78.444 85" xml:space="preserve">
<circle opacity="0.5" fill="#49B3E0" cx="41.027" cy="42.777" r="30.688"/>
<g>
	<path fill="#003865" d="M28.571,18.277c0.663,1.161,1.475,2.264,1.963,3.495c1.223,3.087,2.382,6.204,3.418,9.359
		c2.171,6.608,1.332,12.904-2.249,18.841c-1.653,2.742-3.045,5.568-3.447,8.801c-0.135,1.076-0.838,1.686-1.904,1.811
		c-4.611,0.541-9.223,1.07-13.835,1.594c-1.078,0.121-1.943-0.343-2.269-1.339C8.421,55.26,6.235,49.773,6.021,43.781
		c-0.326-9.138,2.32-17.299,7.951-24.474C17.608,14.675,24.252,14.291,28.571,18.277 M25.828,57.702
		c0.729-3.371,2.281-7.372,3.996-10.276c2.575-4.36,2.813-9.863,1.358-14.729c-1.053-3.524-2.473-7.44-3.871-10.847
		c-1.521-3.707-8.414-3.529-10.961-0.457c-8.014,9.665-8.996,26.517-3.083,37.908C16.752,58.902,22.283,58.108,25.828,57.702"/>
	<path fill="#003865" d="M28.161,79.475c-2.792,2.561-6.178,3.568-9.999,2.394c-3.808-1.171-6.2-3.817-6.948-7.74
		c-0.499-2.616-0.748-5.284-1.056-7.936c-0.157-1.35,0.583-2.266,1.957-2.421c5.087-0.571,10.179-1.12,15.271-1.643
		c1.284-0.133,2.112,0.494,2.372,1.766c0.478,2.327,0.974,4.654,1.315,7.004C31.544,74.146,30.489,76.949,28.161,79.475
		 M27.112,64.953c-3.819,0.412-9.983,1.122-13.873,1.541c0.336,2.182,0.746,6.196,1.285,8.222c0.751,2.825,4.736,5.703,7.62,5.138
		c2.884-0.563,6.852-3.426,6.252-8.906C28.232,69.178,27.436,66.796,27.112,64.953"/>
	<path fill="#003865" d="M66.921,6.968c5.631,7.175,8.278,15.337,7.952,24.475c-0.215,5.992-2.4,11.478-4.227,17.058
		c-0.326,0.996-1.192,1.459-2.269,1.337c-4.611-0.521-9.224-1.051-13.834-1.592c-1.067-0.126-1.771-0.734-1.905-1.81
		c-0.402-3.233-1.795-6.06-3.447-8.801c-3.582-5.937-4.419-12.232-2.249-18.842c1.035-3.154,2.195-6.273,3.418-9.358
		c0.489-1.232,1.299-2.334,1.964-3.495C56.642,1.952,63.285,2.336,66.921,6.968 M67.626,46.962
		c5.914-11.392,4.93-28.244-3.083-37.909c-2.547-3.071-9.441-3.25-10.962,0.458c-1.396,3.405-2.816,7.321-3.869,10.847
		c-1.455,4.865-1.219,10.369,1.357,14.729c1.716,2.904,3.267,6.905,3.996,10.276C58.609,45.77,64.143,46.563,67.626,46.962"/>
	<path fill="#003865" d="M49.822,58.559c0.341-2.349,0.836-4.678,1.313-7.005c0.26-1.271,1.088-1.896,2.372-1.766
		c5.093,0.523,10.183,1.071,15.272,1.644c1.372,0.155,2.112,1.069,1.956,2.421c-0.308,2.651-0.557,5.317-1.056,7.936
		c-0.747,3.923-3.141,6.568-6.947,7.74c-3.822,1.174-7.208,0.167-9.999-2.394C50.403,64.609,49.351,61.807,49.822,58.559
		 M52.497,58.608c-0.6,5.48,3.368,8.343,6.251,8.906c2.885,0.563,6.869-2.313,7.621-5.138c0.539-2.026,0.948-6.041,1.285-8.223
		c-3.89-0.419-10.054-1.129-13.872-1.541C53.457,54.455,52.661,56.839,52.497,58.608"/>
</g>
</svg>
