<?xml version="1.0" encoding="utf-8"?>
<!-- Generator: Adobe Illustrator 16.0.0, SVG Export Plug-In . SVG Version: 6.00 Build 0)  -->
<!DOCTYPE svg PUBLIC "-//W3C//DTD SVG 1.1//EN" "http://www.w3.org/Graphics/SVG/1.1/DTD/svg11.dtd">
<svg version="1.1" id="Layer_1" xmlns="http://www.w3.org/2000/svg" xmlns:xlink="http://www.w3.org/1999/xlink" x="0px" y="0px"
	 width="74.362px" height="82.047px" viewBox="0 0 74.362 82.047" enable-background="new 0 0 74.362 82.047" xml:space="preserve">
<path d="M17.866,0.521c1.508-0.167,2.43,0.543,3.113,1.848c3.314,6.334,6.678,12.644,10.024,18.96
	c0.122,0.23,0.194,0.554,0.39,0.668c0.298,0.173,0.761,0.37,1,0.25c0.241-0.118,0.363-0.608,0.4-0.952
	c0.021-0.22-0.206-0.466-0.329-0.699c-2.891-5.461-5.784-10.92-8.671-16.383c-0.207-0.392-0.394-0.805-0.511-1.229
	c-0.309-1.127,0.123-2.072,1.163-2.638c1.047-0.575,2.07-0.435,2.851,0.437c0.291,0.326,0.532,0.713,0.738,1.103
	c3.147,5.919,6.282,11.845,9.42,17.768c0.134,0.254,0.225,0.597,0.441,0.727c0.269,0.164,0.725,0.297,0.954,0.174
	c0.23-0.125,0.357-0.575,0.387-0.896c0.02-0.223-0.197-0.471-0.319-0.701c-1.667-3.148-3.34-6.292-4.997-9.443
	c-0.63-1.197-0.498-2.275,0.334-3.107c1.106-1.103,2.908-0.912,3.735,0.402c0.153,0.243,0.28,0.502,0.415,0.756
	c3.2,6.041,6.338,12.112,9.622,18.106c1.756,3.209,2.342,6.49,1.535,10.065c-0.334,1.481-0.502,2.998-0.699,4.506
	c-0.189,1.501,0.097,2.924,0.893,4.217c2.758,4.512,5.505,9.03,8.295,13.523c1.917,3.09,3.9,6.143,5.852,9.213
	c-4.836,2.562-9.672,5.123-14.508,7.685c-3.422-7.362-6.836-14.729-10.266-22.084c-0.496-1.067-1.102-2.084-1.625-3.138
	c-0.352-0.7-0.929-1.063-1.658-1.184c-0.932-0.151-1.876-0.242-2.812-0.365c-2.55-0.328-4.985-1.037-7.216-2.332
	c-2.029-1.177-3.488-2.938-4.601-4.943c-2.256-4.079-4.418-8.212-6.598-12.331c-0.701-1.324-0.302-2.742,0.896-3.41
	c1.21-0.679,2.682-0.227,3.414,1.116c1.193,2.184,2.339,4.393,3.504,6.593c0.121,0.229,0.208,0.545,0.405,0.657
	c0.274,0.16,0.717,0.315,0.943,0.197c0.234-0.122,0.378-0.572,0.395-0.886c0.015-0.253-0.213-0.522-0.347-0.776
	c-3.886-7.336-7.772-14.674-11.655-22.012c-0.823-1.554-0.408-2.992,1.03-3.638c0.942-0.426,2.063-0.194,2.715,0.602
	c0.265,0.321,0.48,0.689,0.675,1.057c2.911,5.482,5.817,10.968,8.725,16.45c0.135,0.256,0.23,0.597,0.447,0.724
	c0.267,0.155,0.721,0.27,0.951,0.144c0.232-0.128,0.368-0.565,0.397-0.884c0.019-0.221-0.199-0.467-0.323-0.7
	c-3.371-6.366-6.724-12.739-10.126-19.088c-0.702-1.302-0.765-2.459,0.228-3.609C17.216,0.866,17.542,0.693,17.866,0.521
	 M42.461,29.198c-0.778-1.516-2.019-2.385-3.728-2.492c-1.732-0.11-3.123,0.604-4.077,2.054c-0.264,0.404-0.494,0.548-0.984,0.529
	c-2.203-0.083-4.084,1.434-4.541,3.59c-0.503,2.396,1.043,4.916,3.695,5.707c1.47,0.434,3.041,0.532,4.555,0.836
	c0.628,0.127,1.252,0.346,1.839,0.611c0.75,0.339,1.081,0.145,1.196-0.701c0.077-0.561,0.217-1.13,0.445-1.646
	c0.396-0.911,0.902-1.778,1.33-2.676C43.099,33.113,43.471,31.183,42.461,29.198"/>
<path d="M35.858,82.047c-1.204-1.713-2.387-3.437-3.617-5.128c-2.496-3.426-5.031-6.822-7.52-10.25
	c-0.589-0.815-1.305-1.081-2.289-1.038c-1.543,0.063-3.091,0.057-4.629-0.029c-2.587-0.149-4.67-1.384-6.302-3.305
	c-2.255-2.648-4.424-5.37-6.604-8.079c-0.712-0.887-0.616-1.971,0.15-2.612c0.824-0.688,1.911-0.547,2.7,0.407
	c1.117,1.35,2.199,2.729,3.297,4.097c0.081,0.101,0.144,0.259,0.249,0.295c0.307,0.103,0.633,0.16,0.953,0.236
	c-0.01-0.33,0.115-0.759-0.044-0.974c-0.871-1.177-1.812-2.301-2.731-3.44c-2.952-3.666-5.91-7.33-8.861-10.998
	c-0.83-1.029-0.81-2.114,0.045-2.776c0.864-0.668,1.897-0.462,2.735,0.576c2.149,2.669,4.291,5.343,6.439,8.012
	c0.786,0.978,1.585,1.949,2.373,2.926c0.272,0.336,0.572,0.59,0.984,0.244c0.41-0.342,0.213-0.685-0.059-1.019
	c-3.084-3.831-6.166-7.663-9.249-11.495c-0.309-0.388-0.62-0.775-0.925-1.168c-0.796-1.013-0.778-2.057,0.049-2.71
	c0.871-0.694,1.909-0.502,2.74,0.524c1.264,1.564,2.519,3.142,3.781,4.712c2.096,2.607,4.195,5.217,6.298,7.823
	c0.272,0.34,0.582,0.678,1.042,0.308c0.469-0.375,0.185-0.755-0.083-1.086c-2.82-3.507-5.649-7.005-8.472-10.508
	c-0.145-0.184-0.295-0.367-0.43-0.56c-0.73-1.017-0.64-1.933,0.254-2.625c0.778-0.602,1.754-0.458,2.504,0.424
	c0.729,0.856,1.419,1.746,2.123,2.623c2.474,3.079,4.948,6.156,7.422,9.235c0.601,0.748,0.868,0.744,1.439-0.038
	c0.646,0.597,1.264,1.222,1.939,1.777c1.628,1.341,3.538,2.14,5.558,2.666c0.733,0.188,1.184,0.582,1.319,1.265
	c0.26,1.326,0.603,2.66,0.644,3.998c0.176,5.685,0.031,5,3.586,8.896c3.933,4.308,7.972,8.513,11.968,12.758
	c0.07,0.078,0.165,0.134,0.247,0.197C43.206,78.155,39.532,80.102,35.858,82.047 M17.021,51.254c-0.297,0.221-0.5,0.346-0.674,0.5
	c-1.908,1.688-1.439,4.626,0.985,5.675c0.809,0.352,1.773,0.398,2.678,0.472c1.213,0.103,2.442,0.117,3.66,0.115
	c0.19-0.002,0.514-0.269,0.555-0.462c0.244-1.112,0.46-2.236,0.61-3.362c0.125-0.954,0.322-1.943,0.177-2.868
	c-0.221-1.396-1.08-2.436-2.535-2.798c-1.31-0.329-2.521-0.018-3.313,1.082C18.563,50.441,18.098,51.309,17.021,51.254"/>
<path d="M65.573,66.308c-1.174-1.797-2.359-3.588-3.516-5.396c-0.172-0.276-0.221-0.64-0.299-0.967
	c-1.002-4.25-2.01-8.498-2.99-12.755c-0.307-1.346-1.026-2.382-2.129-3.184c-1.077-0.784-2.2-1.524-3.211-2.388
	c-0.844-0.724-1.572-1.584-2.303-2.427c-0.176-0.2-0.183-0.566-0.213-0.862c-0.019-0.203,0.04-0.417,0.086-0.62
	c0.672-2.97,0.989-5.949,0.231-8.968c1.149,0.171,1.338-0.053,1.017-1.101c-1.458-4.776-2.921-9.557-4.375-14.334
	c-0.353-1.161-0.041-2.031,0.844-2.414c1.098-0.475,2.063-0.055,2.461,1.183c0.834,2.59,1.615,5.196,2.408,7.799
	c0.586,1.927,1.162,3.855,1.752,5.781c0.125,0.404,0.272,0.868,0.844,0.698c0.623-0.184,0.463-0.661,0.328-1.1
	c-1.551-5.078-3.105-10.155-4.656-15.233c-0.223-0.725-0.396-1.515,0.246-2.054c0.418-0.349,1.056-0.609,1.594-0.604
	c0.768,0.002,1.24,0.59,1.465,1.327c0.639,2.102,1.286,4.202,1.93,6.306c0.92,3.028,1.838,6.056,2.756,9.084
	c0.053,0.176,0.067,0.402,0.188,0.51c0.206,0.181,0.479,0.29,0.726,0.428c0.135-0.267,0.433-0.577,0.375-0.793
	c-0.318-1.269-0.721-2.517-1.104-3.768c-0.997-3.278-2.007-6.551-3.008-9.829c-0.313-1.021-0.133-1.819,0.494-2.296
	c1.054-0.797,2.423-0.294,2.846,1.063c0.895,2.9,1.773,5.808,2.656,8.707c0.908,2.979,1.805,5.959,2.716,8.936
	c0.069,0.223,0.146,0.497,0.313,0.616c0.176,0.122,0.609,0.194,0.674,0.105c0.162-0.218,0.291-0.575,0.225-0.821
	c-0.314-1.189-0.698-2.357-1.057-3.532c-0.205-0.676-0.442-1.345-0.608-2.03c-0.272-1.123,0.22-2.026,1.209-2.314
	c0.954-0.276,1.914,0.254,2.246,1.336c0.976,3.177,1.897,6.367,2.877,9.541c1.183,3.854,0.004,7.179-2.349,10.211
	c-2.043,2.634-1.918,2.087-0.84,5.206c1.815,5.241,3.75,10.441,5.638,15.657c0.081,0.222,0.2,0.424,0.302,0.639
	C71.433,63.205,68.507,64.755,65.573,66.308 M55.654,29.767c-1.422,0.966-2.049,2.708-1.5,4.247
	c0.591,1.658,1.948,2.355,3.464,2.926c1.014,0.387,1.98,0.904,2.992,1.305c0.193,0.076,0.62-0.047,0.736-0.218
	c0.635-0.918,1.242-1.856,1.787-2.829c0.482-0.862,1.033-1.731,1.266-2.668c0.393-1.571-0.402-3.099-1.725-3.791
	c-1.312-0.685-2.774-0.414-3.982,0.685c-0.169,0.155-0.48,0.187-0.732,0.208C57.193,29.692,56.423,29.724,55.654,29.767"/>
</svg>
