<?xml version="1.0" encoding="utf-8"?>
<!-- Generator: Adobe Illustrator 18.0.0, SVG Export Plug-In . SVG Version: 6.00 Build 0)  -->
<!DOCTYPE svg PUBLIC "-//W3C//DTD SVG 1.1//EN" "http://www.w3.org/Graphics/SVG/1.1/DTD/svg11.dtd">
<svg version="1.1" id="Capa_1" xmlns="http://www.w3.org/2000/svg" xmlns:xlink="http://www.w3.org/1999/xlink" x="0px" y="0px"
	 viewBox="0 0 31.6 41.5" enable-background="new 0 0 31.6 41.5" xml:space="preserve">
<g opacity="0.9">
	<g>
		<defs>
			<rect id="SVGID_1_" x="0.9" y="2.4" width="30.7" height="37.1"/>
		</defs>
		<clipPath id="SVGID_2_">
			<use xlink:href="#SVGID_1_"  overflow="visible"/>
		</clipPath>
		<path clip-path="url(#SVGID_2_)" fill-rule="evenodd" clip-rule="evenodd" fill="#80B4DC" d="M14.8,39.5c-0.7-0.1-1.4-0.3-2.1-0.4
			c-8.1-2-13.1-9.8-11.5-18C1.7,18.4,3,16,4.9,13.9c0.2-0.2,0.4-0.4,0.6-0.6c0,0,0-0.1,0.1-0.2c-0.3-0.4-0.7-0.9-1-1.3
			C3.8,10.7,4,9.3,5,8.6C6,7.8,7.4,7.9,8.2,9c0.4,0.5,0.7,1,1.1,1.4c1.5-0.5,2.9-1,4.5-1.5c-0.3-0.1-0.5-0.2-0.6-0.3
			c-1.5-0.4-2.4-1.5-2.4-2.9c-0.1-1.5,0.8-2.6,2.2-3.1c0.1,0,0.2-0.1,0.2-0.1h6.1c0.3,0.1,0.5,0.2,0.8,0.4c1.1,0.6,1.8,1.7,1.7,3
			c-0.1,1.2-1,2.3-2.1,2.7c-0.2,0.1-0.5,0.1-0.7,0.2c0,0.1,0,0.1,0,0.2c0.2,0.1,0.5,0.2,0.7,0.3c6.1,1.4,10.7,6.2,11.8,12.4
			c1.5,8.5-4.4,16.7-13.1,17.9c-0.2,0-0.4,0.1-0.6,0.1H14.8z M30,24.2c0-7.6-6.2-13.7-13.7-13.7c-7.5,0-13.7,6.1-13.7,13.7
			c0,7.5,6.3,13.8,13.8,13.7C23.9,37.8,30,31.7,30,24.2 M13.6,6.9c0-0.2,0-0.3,0-0.4c0-1.1,0.2-1.3,1.3-1.3c0.7,0,1.4,0,2.1,0
			c1.7,0,1.7,0,2,1.8c0.4-0.4,0.8-0.7,1-1.1c0.4-1-0.3-1.9-1.5-1.9c-1.5,0-2.9,0-4.4,0c-0.2,0-0.4,0-0.6,0.1c-0.6,0.2-1.1,0.8-1,1.4
			C12.5,6.2,12.8,6.8,13.6,6.9 M17.3,7h-2v1.8h2V7z M7.9,11.3c-0.3-0.5-0.6-0.9-1-1.2C6.7,9.9,6.3,9.9,6,9.9c0,0.3-0.2,0.7-0.1,0.9
			c0.2,0.4,0.6,0.8,0.9,1.2C7.2,11.8,7.5,11.6,7.9,11.3"/>
		<path clip-path="url(#SVGID_2_)" fill-rule="evenodd" clip-rule="evenodd" fill="#80B4DC" d="M17.2,18.2c0,0.4,0,0.8,0,1.1
			c0,1.1-0.1,1.9,1.2,2.6c1.3,0.7,1.6,2.5,1.1,3.9c-0.5,1.4-2,2.3-3.4,2.2c-1.5-0.1-2.8-1.2-3.1-2.7c-0.3-1.5,0.3-3,1.7-3.7
			c0.6-0.3,0.7-0.6,0.7-1.3c0-1.6,0-3.2,0-4.8c0-0.9,0.7-1.5,1.3-1c0.3,0.2,0.5,0.7,0.5,1C17.3,16.5,17.2,17.3,17.2,18.2 M17.8,24.6
			c0-0.8-0.6-1.5-1.5-1.6c-0.9,0-1.6,0.6-1.6,1.5c0,0.8,0.6,1.5,1.5,1.6C17.1,26.1,17.8,25.5,17.8,24.6"/>
	</g>
</g>
</svg>
