<?xml version="1.0" encoding="utf-8"?>
<!-- Generator: Adobe Illustrator 18.0.0, SVG Export Plug-In . SVG Version: 6.00 Build 0)  -->
<!DOCTYPE svg PUBLIC "-//W3C//DTD SVG 1.1//EN" "http://www.w3.org/Graphics/SVG/1.1/DTD/svg11.dtd">
<svg version="1.1" id="Capa_1" xmlns="http://www.w3.org/2000/svg" xmlns:xlink="http://www.w3.org/1999/xlink" x="0px" y="0px"
	 viewBox="0 0 13.1 16.1" enable-background="new 0 0 13.1 16.1" xml:space="preserve">
<g>
	<g id="_x34__19_">
		<g>
			<path d="M9.1,14.1c0.3,0,0.5-0.2,0.5-0.5V7.6c0-0.3-0.2-0.5-0.5-0.5c-0.3,0-0.5,0.2-0.5,0.5v6.1
				C8.6,13.9,8.8,14.1,9.1,14.1z M12.1,2h-3V1c0-0.6-0.5-1-1-1H5C4.5,0,4,0.5,4,1v1H1C0.5,2,0,2.5,0,3v1c0,0.6,0.5,1,1,1v9.1
				c0,1.1,0.9,2,2,2h7.1c1.1,0,2-0.9,2-2V5c0.6,0,1-0.5,1-1V3C13.1,2.5,12.7,2,12.1,2z M5,1.5C5,1.2,5.3,1,5.5,1h2
				c0.3,0,0.5,0.2,0.5,0.5V2C7.6,2,5,2,5,2V1.5z M11.1,14.1c0,0.6-0.5,1-1,1H3c-0.6,0-1-0.5-1-1V5h9.1V14.1z M11.6,4H1.5
				C1.2,4,1,3.8,1,3.5C1,3.3,1.2,3,1.5,3h10.1c0.3,0,0.5,0.2,0.5,0.5C12.1,3.8,11.9,4,11.6,4z M4,14.1c0.3,0,0.5-0.2,0.5-0.5V7.6
				c0-0.3-0.2-0.5-0.5-0.5c-0.3,0-0.5,0.2-0.5,0.5v6.1C3.5,13.9,3.8,14.1,4,14.1z M6.6,14.1c0.3,0,0.5-0.2,0.5-0.5V7.6
				c0-0.3-0.2-0.5-0.5-0.5c-0.3,0-0.5,0.2-0.5,0.5v6.1C6.1,13.9,6.3,14.1,6.6,14.1z"/>
		</g>
	</g>
</g>
</svg>
