<?xml version="1.0" encoding="UTF-8" standalone="no"?>
<svg
   xmlns:dc="http://purl.org/dc/elements/1.1/"
   xmlns:cc="http://creativecommons.org/ns#"
   xmlns:rdf="http://www.w3.org/1999/02/22-rdf-syntax-ns#"
   xmlns:svg="http://www.w3.org/2000/svg"
   xmlns="http://www.w3.org/2000/svg"
   viewBox="0 0 254.57333 681.88"
   height="681.88"
   width="254.57333"
   xml:space="preserve"
   id="svg2"
   version="1.1"><metadata
     id="metadata8"><rdf:RDF><cc:Work
         rdf:about=""><dc:format>image/svg+xml</dc:format><dc:type
           rdf:resource="http://purl.org/dc/dcmitype/StillImage" /></cc:Work></rdf:RDF></metadata><defs
     id="defs6" /><g
     transform="matrix(1.3333333,0,0,-1.3333333,0,681.88)"
     id="g10"><g
       transform="scale(0.1)"
       id="g12"><path
         id="path14"
         style="fill:#3e3d40;fill-opacity:1;fill-rule:nonzero;stroke:none"
         d="m 381.465,217.488 c 6.105,0 12.613,-2.679 19.531,-8.047 8.625,-6.761 14.527,-10.132 17.703,-10.132 4.715,0 7.078,2.441 7.078,7.32 0,2.68 -1.386,4.961 -4.148,6.84 -1.465,0.98 -9.688,4.101 -24.66,9.39 -24.496,8.629 -36.742,24.582 -36.742,47.86 0,17.57 6.468,31.453 19.41,41.621 11.308,8.871 25.304,13.308 41.992,13.308 14.402,0 26.934,-3.437 37.598,-10.32 10.656,-6.879 15.988,-15.726 15.988,-26.547 0,-6.511 -2.012,-11.941 -6.043,-16.301 -4.024,-4.351 -9.258,-6.531 -15.684,-6.531 -6.758,0 -14.242,3.223 -22.461,9.653 -5.129,3.98 -8.996,5.968 -11.597,5.968 -4.477,0 -6.715,-2.179 -6.715,-6.582 0,-4.156 5.535,-7.937 16.601,-11.359 15.301,-4.797 27.141,-10.66 35.524,-17.57 11.148,-9.278 16.723,-22.297 16.723,-39.071 0,-18.226 -6.27,-32.468 -18.797,-42.718 -11.641,-9.52 -26.778,-14.282 -45.411,-14.282 -18.636,0 -34.058,4.961 -46.265,14.891 -9.766,7.902 -14.649,17.133 -14.649,27.711 0,7.082 2.399,12.98 7.204,17.699 4.8,4.723 10.742,7.121 17.82,7.199" /><path
         id="path16"
         style="fill:#3e3d40;fill-opacity:1;fill-rule:nonzero;stroke:none"
         d="m 555.051,206.02 h 24.969 c 10.316,0 17.988,-2.122 23.023,-6.348 5.93,-5.051 8.891,-11.551 8.891,-19.531 0,-8.141 -2.973,-14.731 -8.911,-19.782 -4.636,-3.898 -12.25,-5.859 -22.828,-5.859 h -42.843 c -10.094,0 -17.012,0.781 -20.754,2.328 -7.325,3.012 -12.168,7.934 -14.528,14.762 -1.465,4.398 -2.195,11.609 -2.195,21.609 v 90.582 c 0,7.559 0.242,12.649 0.73,15.258 0.895,5.289 3.055,9.762 6.473,13.422 3.906,4.148 8.867,6.801 14.891,7.937 2.847,0.493 8.625,0.731 17.336,0.731 h 32.836 c 8.949,0 14.16,-0.078 15.625,-0.238 5.859,-0.582 10.66,-2.282 14.402,-5.141 6.672,-5.031 10.012,-11.629 10.012,-19.762 0,-8.789 -2.926,-15.508 -8.77,-20.148 -5.199,-4.149 -12.305,-6.219 -21.32,-6.219 h -27.039 v -11.359 h 21.547 c 6.328,0 11.562,-1.672 15.703,-5.012 4.379,-3.57 6.574,-8.488 6.574,-14.762 0,-13.258 -8.078,-19.898 -24.227,-19.898 h -19.597 v -12.57" /><path
         id="path18"
         style="fill:#3e3d40;fill-opacity:1;fill-rule:nonzero;stroke:none"
         d="m 683.469,206.02 h 24.969 c 10.316,0 17.988,-2.122 23.023,-6.348 5.93,-5.051 8.891,-11.551 8.891,-19.531 0,-8.141 -2.973,-14.731 -8.911,-19.782 -4.636,-3.898 -12.25,-5.859 -22.828,-5.859 H 665.77 c -10.094,0 -17.012,0.781 -20.754,2.328 -7.325,3.012 -12.168,7.934 -14.528,14.762 -1.465,4.398 -2.195,11.609 -2.195,21.609 v 90.582 c 0,7.559 0.242,12.649 0.73,15.258 0.895,5.289 3.055,9.762 6.473,13.422 3.906,4.148 8.867,6.801 14.891,7.937 2.847,0.493 8.625,0.731 17.336,0.731 h 32.836 c 8.949,0 14.16,-0.078 15.625,-0.238 5.859,-0.582 10.66,-2.282 14.402,-5.141 6.672,-5.031 10.012,-11.629 10.012,-19.762 0,-8.789 -2.926,-15.508 -8.77,-20.148 -5.199,-4.149 -12.305,-6.219 -21.32,-6.219 h -27.039 v -11.359 h 21.547 c 6.328,0 11.562,-1.672 15.703,-5.012 4.379,-3.57 6.574,-8.488 6.574,-14.762 0,-13.258 -8.078,-19.898 -24.227,-19.898 h -19.597 v -12.57" /><path
         id="path20"
         style="fill:#3e3d40;fill-opacity:1;fill-rule:nonzero;stroke:none"
         d="m 811.641,264.738 31.007,44.922 c 5.86,8.461 13.426,12.699 22.704,12.699 7.57,0 14.117,-2.699 19.656,-8.07 5.531,-5.367 8.301,-11.801 8.301,-19.277 0,-5.543 -1.465,-10.422 -4.395,-14.653 l -27.953,-40.648 34.176,-43.332 c 3.418,-4.32 5.129,-9.367 5.129,-15.141 0,-7.648 -2.688,-14.226 -8.055,-19.707 -5.375,-5.5 -11.887,-8.25 -19.535,-8.25 -8.383,0 -14.77,2.731 -19.164,8.18 l -41.871,52.238 v -28.808 c 0,-8.211 -1.426,-14.59 -4.27,-19.161 -5.211,-8.3 -12.781,-12.449 -22.707,-12.449 -9.031,0 -16.035,3.059 -20.996,9.149 -4.637,5.629 -6.957,13.07 -6.957,22.351 V 291.59 c 0,8.789 2.359,16.031 7.078,21.719 4.965,6.031 11.797,9.05 20.508,9.05 8.301,0 15.215,-3.019 20.754,-9.05 3.09,-3.329 5.043,-6.707 5.859,-10.118 0.488,-2.121 0.731,-6.07 0.731,-11.851 v -26.602" /><path
         id="path22"
         style="fill:#4cb938;fill-opacity:1;fill-rule:nonzero;stroke:none"
         d="m 968.137,206.02 h 26.98 c 8.303,0 14.843,-1.711 19.653,-5.129 7,-5.051 10.5,-11.879 10.5,-20.512 0,-7.809 -2.86,-14.32 -8.55,-19.527 -4.56,-4.231 -11.35,-6.352 -20.392,-6.352 h -52.363 c -10.254,0 -18.027,2.891 -23.313,8.68 -3.828,4.218 -6.187,9.629 -7.082,16.23 -0.242,2.121 -0.367,8.18 -0.367,18.18 v 94 c 0,8.871 2.32,16.121 6.961,21.719 4.961,6.031 11.758,9.05 20.383,9.05 9.113,0 16.23,-3.339 21.367,-10.019 4.141,-5.371 6.223,-14.531 6.223,-27.461 V 206.02" /><path
         id="path24"
         style="fill:#4cb938;fill-opacity:1;fill-rule:nonzero;stroke:none"
         d="m 1112.06,325.648 c 16.93,0.161 32.46,-4.257 46.62,-13.25 14.16,-8.988 24.91,-20.847 32.23,-35.578 6.11,-12.211 9.16,-25.148 9.16,-38.82 0,-15.379 -3.79,-29.781 -11.35,-43.211 -7.58,-13.43 -17.91,-24.129 -31.01,-32.098 -13.91,-8.472 -29.3,-12.703 -46.14,-12.703 -16.36,0 -31.64,4.422 -45.84,13.242 -14.21,8.829 -24.92,20.61 -32.16,35.34 -6.11,12.371 -9.16,25.961 -9.16,40.782 0,12.199 2.64,24 7.94,35.386 7.24,15.711 18.06,28.121 32.47,37.231 14.08,8.961 29.82,13.511 47.24,13.679" /><path
         id="path26"
         style="fill:#4cb938;fill-opacity:1;fill-rule:nonzero;stroke:none"
         d="m 1316.9,211.52 h -7.93 c -10.18,0 -17.09,3.25 -20.77,9.761 -1.78,3.09 -2.67,6.508 -2.67,10.258 0,6.672 2.6,11.871 7.81,15.621 3.91,2.84 10.17,4.27 18.79,4.27 13.76,0 21.74,-0.078 23.93,-0.25 10.58,-0.731 17.91,-2.809 21.97,-6.231 6.19,-5.199 9.28,-14.027 9.28,-26.48 0,-9.52 -0.2,-17.821 -0.61,-24.899 -0.57,-10.261 -6.95,-19.57 -19.16,-27.949 -15.14,-10.422 -31.58,-15.633 -49.32,-15.633 -21.32,0 -40.12,6.754 -56.4,20.262 -9.92,8.301 -17.7,18.41 -23.31,30.34 -5.62,11.91 -8.43,24.34 -8.43,37.289 0,16.762 4.39,32.242 13.18,46.449 8.79,14.203 20.68,24.922 35.65,32.172 12.61,6.09 25.64,9.148 39.06,9.148 16.93,0 32.56,-4.519 46.88,-13.546 11.48,-7.243 17.21,-15.922 17.21,-26 0,-7.653 -2.72,-14.18 -8.17,-19.59 -5.46,-5.422 -12.01,-8.121 -19.66,-8.121 -3.17,0 -9.77,2.48 -19.78,7.441 -6.02,3.008 -11.79,4.508 -17.33,4.508 -8.62,0 -15.99,-3.231 -22.1,-9.692 -6.09,-6.476 -9.15,-14.07 -9.15,-22.769 0,-9.039 3.12,-16.707 9.34,-23.008 6.23,-6.312 13.85,-9.473 22.89,-9.473 5.78,0 12.04,2.043 18.8,6.122" /><path
         id="path28"
         style="fill:#4cb938;fill-opacity:1;fill-rule:nonzero;stroke:none"
         d="m 1464.85,325.648 c 16.92,0.161 32.46,-4.257 46.62,-13.25 14.16,-8.988 24.9,-20.847 32.22,-35.578 6.12,-12.211 9.16,-25.148 9.16,-38.82 0,-15.379 -3.79,-29.781 -11.34,-43.211 -7.58,-13.43 -17.91,-24.129 -31.02,-32.098 -13.91,-8.472 -29.3,-12.703 -46.13,-12.703 -16.37,0 -31.64,4.422 -45.84,13.242 -14.21,8.829 -24.92,20.61 -32.17,35.34 -6.1,12.371 -9.16,25.961 -9.16,40.782 0,12.199 2.65,24 7.94,35.386 7.24,15.711 18.06,28.121 32.47,37.231 14.08,8.961 29.82,13.511 47.25,13.679" /><g
         transform="scale(10)"
         id="g30"><text
           id="text34"
           style="font-variant:normal;font-weight:normal;font-size:12px;font-family:MyriadPro;-inkscape-font-specification:MyriadPro-Regular;writing-mode:lr-tb;fill:#5b5c5e;fill-opacity:1;fill-rule:nonzero;stroke:none"
           transform="matrix(1,0,0,-1,32.9348,2.99883)"><tspan
             id="tspan32"
             y="0"
             x="0 6.612298 10.584298 14.556298 21.384298 23.867693 27.983694 32.099693 41.075283 50.051842 58.416103 60.899498 65.651497 71.663498 77.675499 83.506554 86.338554 92.926552 99.634552 105.93533 108.41873 115.07874 121.09074">http://www.seeklogo.net</tspan></text>
</g><path
         id="path36"
         style="fill:#231f20;fill-opacity:1;fill-rule:nonzero;stroke:none"
         d="m 1429.77,4373.55 0.6,-30.28 c 0,-310.53 -236.56,-668.8 -668.948,-668.8 -132.746,0 -256.246,38.93 -360.059,106.05 18.051,-2.39 36.844,-3.58 55.934,-3.58 110.226,0 211.5,37.89 291.894,100.82 -103.062,1.8 -189.273,69.96 -219.558,163.18 14.472,-2.98 29.086,-4.17 44.305,-4.17 21.472,0 42.507,2.98 61.746,8.2 -107.243,21.62 -188.227,116.49 -188.227,230.14 v 2.98 c 31.469,-17.59 67.563,-28.04 106.047,-29.23 -62.941,41.91 -104.258,114.25 -104.258,195.24 0,43.1 11.633,83.82 32.067,118.28 115.292,-142.15 288.91,-235.37 484.148,-245.36 -4.18,17 -5.816,35.05 -5.816,53.69 0,129.32 104.855,234.77 234.765,234.77 67.57,0 128.72,-28.64 171.82,-73.98 53.1,10.44 103.66,29.68 149.16,56.53 -17.46,-54.89 -54.74,-100.83 -103.67,-129.91 47.73,5.81 93.22,18.64 135.14,37.29 -31.47,-47.29 -71.6,-88.6 -117.09,-121.86 z m 121.11,740.54 H 357.668 C 160.188,5114.09 0,4953.9 0,4756.42 V 3563.21 C 0,3364.98 160.188,3204.79 357.668,3204.79 H 1550.88 c 198.22,0 358.42,160.19 358.42,358.42 v 1193.21 c 0,197.48 -160.2,357.67 -358.42,357.67 v 0" /></g></g></svg>