<?xml version="1.0" encoding="UTF-8" standalone="no"?>
<svg
   xmlns:dc="http://purl.org/dc/elements/1.1/"
   xmlns:cc="http://creativecommons.org/ns#"
   xmlns:rdf="http://www.w3.org/1999/02/22-rdf-syntax-ns#"
   xmlns:svg="http://www.w3.org/2000/svg"
   xmlns="http://www.w3.org/2000/svg"
   viewBox="0 0 254.57333 263"
   xml:space="preserve"
   id="svg2"
   version="1.1"><metadata
     id="metadata8"><rdf:RDF><cc:Work
         rdf:about=""><dc:format>image/svg+xml</dc:format><dc:type
           rdf:resource="http://purl.org/dc/dcmitype/StillImage" /></cc:Work></rdf:RDF></metadata><defs
     id="defs6" /><g
     transform="matrix(1.3333333,0,0,-1.3333333,0,681.88)"
     id="g10"><g
       transform="scale(0.1)"
       id="g12">
         <path
         id="path36"
         style="fill:#000000;fill-opacity:1;fill-rule:nonzero;stroke:none"
         d="m 1429.77,4373.55 0.6,-30.28 c 0,-310.53 -236.56,-668.8 -668.948,-668.8 -132.746,0 -256.246,38.93 -360.059,106.05 18.051,-2.39 36.844,-3.58 55.934,-3.58 110.226,0 211.5,37.89 291.894,100.82 -103.062,1.8 -189.273,69.96 -219.558,163.18 14.472,-2.98 29.086,-4.17 44.305,-4.17 21.472,0 42.507,2.98 61.746,8.2 -107.243,21.62 -188.227,116.49 -188.227,230.14 v 2.98 c 31.469,-17.59 67.563,-28.04 106.047,-29.23 -62.941,41.91 -104.258,114.25 -104.258,195.24 0,43.1 11.633,83.82 32.067,118.28 115.292,-142.15 288.91,-235.37 484.148,-245.36 -4.18,17 -5.816,35.05 -5.816,53.69 0,129.32 104.855,234.77 234.765,234.77 67.57,0 128.72,-28.64 171.82,-73.98 53.1,10.44 103.66,29.68 149.16,56.53 -17.46,-54.89 -54.74,-100.83 -103.67,-129.91 47.73,5.81 93.22,18.64 135.14,37.29 -31.47,-47.29 -71.6,-88.6 -117.09,-121.86 z m 121.11,740.54 H 357.668 C 160.188,5114.09 0,4953.9 0,4756.42 V 3563.21 C 0,3364.98 160.188,3204.79 357.668,3204.79 H 1550.88 c 198.22,0 358.42,160.19 358.42,358.42 v 1193.21 c 0,197.48 -160.2,357.67 -358.42,357.67 v 0" /></g></g></svg>