<?xml version="1.0" encoding="utf-8"?>
<!-- Generator: Adobe Illustrator 18.0.0, SVG Export Plug-In . SVG Version: 6.00 Build 0)  -->
<!DOCTYPE svg PUBLIC "-//W3C//DTD SVG 1.1//EN" "http://www.w3.org/Graphics/SVG/1.1/DTD/svg11.dtd">
<svg version="1.1" id="Capa_1" xmlns="http://www.w3.org/2000/svg" xmlns:xlink="http://www.w3.org/1999/xlink" x="0px" y="0px"
	 viewBox="0 0 45.4 39.6" enable-background="new 0 0 45.4 39.6" xml:space="preserve">
<g>
	<path fill="none" stroke-width="2" stroke-miterlimit="10" d="M1,18.7c0.4-1,1.1-1.4,2.2-1.4
		c2.9,0,5.8-0.3,8.7-0.9c8.2-1.6,15.8-4.8,22.9-9.3C34.8,7,34.9,6.9,35,6.9c0.3-0.2,0.3-0.4,0-0.7c-0.6-0.5-1.1-1.1-1.7-1.7
		c-0.6-0.6-0.5-1.1,0.4-1.3c2.9-0.7,5.9-1.4,8.8-2.2c0.8-0.2,1.2,0.2,1,1.2c-0.6,2.7-1.2,5.4-1.8,8c-0.1,0.2-0.1,0.5-0.2,0.7
		c-0.1,0.3-0.2,0.7-0.5,0.8c-0.3,0-0.6-0.2-0.8-0.4c-0.6-0.6-1.2-1.2-1.8-1.8c-0.4-0.4-0.5-0.4-1.1-0.1c-6.2,4.2-12.9,7.2-20,9.2
		c-4.5,1.3-9.1,2-13.7,2.1c-0.2,0-0.4,0-0.6,0c-1,0-1.8-0.4-2.1-1.4C1,19.2,1,18.9,1,18.7z"/>
	<path fill="none" stroke-width="2" stroke-miterlimit="10" d="M44.4,27c0,3.1,0,6.2,0,9.4c0,1.5-0.8,2.3-2.2,2.3
		c-2.6,0-5.2,0-7.8,0c-1.4,0-2.2-0.8-2.2-2.2c0-6.2,0-12.5,0-18.7c0-1.4,0.8-2.2,2.2-2.2c2.6,0,5.2,0,7.9,0c1.4,0,2.2,0.8,2.2,2.2
		C44.4,20.8,44.4,23.9,44.4,27z"/>
	<path fill="none" stroke-width="2" stroke-miterlimit="10" d="M17.4,29.7c0-2.2,0-4.5,0-6.7
		c0-1.4,0.8-2.2,2.3-2.2c2.6,0,5.2,0,7.7,0c1.4,0,2.3,0.8,2.3,2.3c0,4.4,0,8.9,0,13.3c0,1.5-0.8,2.3-2.2,2.3c-2.6,0-5.2,0-7.8,0
		c-1.4,0-2.2-0.8-2.2-2.2C17.4,34.2,17.4,31.9,17.4,29.7z"/>
	<path fill="none" stroke-width="2" stroke-miterlimit="10" d="M15,32.1c0,1.5,0,2.9,0,4.4c0,1.3-0.8,2.2-2.2,2.2
		c-2.6,0-5.3,0-7.9,0c-1.3,0-2.2-0.8-2.2-2.1c0-2.9,0-5.9,0-8.8c0-1.3,0.9-2.1,2.2-2.1c2.6,0,5.3,0,7.9,0c1.3,0,2.2,0.8,2.2,2.2
		C15,29.2,15,30.7,15,32.1z"/>
</g>
</svg>
