<?xml version="1.0" encoding="utf-8"?>
<!-- Generator: Adobe Illustrator 17.0.0, SVG Export Plug-In . SVG Version: 6.00 Build 0)  -->
<!DOCTYPE svg PUBLIC "-//W3C//DTD SVG 1.1//EN" "http://www.w3.org/Graphics/SVG/1.1/DTD/svg11.dtd">
<svg version="1.1" id="Capa_1" xmlns="http://www.w3.org/2000/svg" xmlns:xlink="http://www.w3.org/1999/xlink" x="0px" y="0px"
	 width="78.444px" height="70.889px" viewBox="0 0 78.444 70.889" enable-background="new 0 0 78.444 70.889" xml:space="preserve">
<circle opacity="0.5" fill="#49B3E0" cx="32.027" cy="38.027" r="30.688"/>
<g>
	<path fill="#003865" d="M68.077,67.996H17.109c-0.062-0.021-0.122-0.058-0.188-0.069c-3.172-0.507-5.417-3.096-5.418-6.294
		c-0.005-14.474-0.004-28.946,0.007-43.419c0-0.543,0.072-1.103,0.209-1.628c0.746-2.867,3.247-4.728,6.324-4.731
		c6.047-0.003,12.095,0.003,18.143-0.011c0.297-0.001,0.626-0.09,0.887-0.233C42.154,8.8,47.224,5.966,52.31,3.162
		c0.797-0.439,1.658-0.766,2.489-1.143h1.072c1.577,0.318,2.506,1.353,3.229,2.73c1.19,2.273,2.484,4.491,3.719,6.742
		c0.155,0.282,0.326,0.375,0.64,0.37c1.237-0.019,2.477-0.06,3.71,0.01c0.811,0.046,1.653,0.156,2.413,0.43
		c2.49,0.898,4.069,3.263,4.073,5.97c0.007,4.643,0.002,9.286,0.002,13.932v0.564h3.051v16.144h-3.051v0.575
		c0,4.039,0.006,8.08-0.002,12.12c-0.007,2.946-1.901,5.417-4.71,6.176C68.658,67.86,68.367,67.926,68.077,67.996 M32.04,14.393
		h-0.466c-4.548,0-9.099-0.002-13.648,0.002c-2.227,0.001-3.881,1.645-3.883,3.879c-0.003,14.432-0.003,28.863,0,43.296
		c0,2.268,1.637,3.886,3.909,3.886c16.424,0.001,32.849,0.001,49.273,0c2.251,0,3.898-1.65,3.898-3.905
		c0.003-4.055,0-8.109,0-12.165c0-0.146,0-0.292,0-0.484h-0.531c-2.818,0-5.636,0.024-8.452-0.016
		c-0.842-0.013-1.714-0.098-2.518-0.336c-3.689-1.086-6.427-4.79-5.35-9.735c0.788-3.615,3.916-6.029,7.687-6.05
		c2.887-0.015,5.772-0.003,8.659-0.003h0.479V20.313H70.5c-17.125,0-34.25,0-51.375,0c-0.165,0-0.339,0.033-0.493-0.011
		c-0.284-0.078-0.593-0.151-0.825-0.319c-0.432-0.314-0.552-0.873-0.371-1.373c0.188-0.519,0.644-0.835,1.246-0.836
		c2.323-0.004,4.645,0.004,6.967-0.01c0.221-0.002,0.465-0.059,0.659-0.165c1.782-0.976,3.555-1.969,5.33-2.957
		C31.74,14.586,31.838,14.519,32.04,14.393 M63.396,17.755c-0.08-0.159-0.138-0.281-0.201-0.397
		c-2.215-3.981-4.432-7.964-6.648-11.946c-0.493-0.887-1.163-1.073-2.062-0.573c-7.593,4.222-15.186,8.443-22.78,12.668
		c-0.113,0.063-0.221,0.135-0.407,0.249H63.396z M74.255,35.299c-0.137-0.007-0.231-0.015-0.325-0.016
		c-4.027,0-8.053-0.006-12.079,0.008c-0.45,0.003-0.91,0.064-1.342,0.183c-2.438,0.666-4.383,2.894-3.845,6.413
		c0.41,2.679,2.574,4.477,5.294,4.485c3.97,0.011,7.941,0.003,11.913,0.002c0.121,0,0.241-0.015,0.383-0.023V35.299z M64.488,14.468
		c0.34,0.615,0.686,1.246,1.039,1.875c0.259,0.466,0.42,1.111,0.819,1.342c0.415,0.238,1.063,0.083,1.609,0.085
		c1.027,0.006,2.052,0.001,3.101,0.001c-0.013-0.143-0.012-0.253-0.034-0.358c-0.298-1.477-1.494-2.747-2.982-2.918
		C66.882,14.361,65.697,14.468,64.488,14.468"/>
	<path fill="#003865" d="M60.155,40.903c0.004-1.543,1.259-2.771,2.827-2.764c1.513,0.007,2.777,1.29,2.76,2.799
		c-0.015,1.549-1.283,2.805-2.816,2.791C61.38,43.718,60.15,42.463,60.155,40.903"/>
</g>
</svg>
